{
    "asset" : {
        "generator" : "Khronos glTF Blender I/O v1.6.16",
        "version" : "2.0"
    },
    "scene" : 0,
    "scenes" : [
        {
            "extras" : {
                "texToolsSettings" : {
                    "size_dropdown" : 6,
                    "size" : [
                        2048,
                        2048
                    ],
                    "padding" : 4
                },
                "glTF2ExportSettings" : {
                    "export_extras" : 1,
                    "export_format" : "GLTF_EMBEDDED",
                    "use_selection" : 1
                },
                "uiListCollec" : [
                    {
                        "idx" : 0,
                        "val" : -0.010430216789245605,
                        "color" : [
                            0,
                            0,
                            0,
                            1
                        ]
                    },
                    {
                        "idx" : 1,
                        "val" : 1.0851469039916992,
                        "color" : [
                            1,
                            1,
                            1,
                            1
                        ]
                    }
                ],
                "blenderkitUI" : {
                    "assetbar_on" : 0,
                    "turn_off" : 0
                },
                "uuid" : "c09b6e5e-8d0a-4ae4-94bc-fa18664f1359"
            },
            "name" : "Scene",
            "nodes" : [
                0
            ]
        }
    ],
    "nodes" : [
        {
            "mesh" : 0,
            "name" : "Plane.031"
        }
    ],
    "materials" : [
        {
            "alphaMode" : "BLEND",
            "doubleSided" : true,
            "name" : "Base",
            "normalTexture" : {
                "index" : 0,
                "scale" : 2
            },
            "pbrMetallicRoughness" : {
                "baseColorTexture" : {
                    "index" : 1
                },
                "metallicFactor" : 0,
                "roughnessFactor" : 0.8999999761581421
            }
        }
    ],
    "meshes" : [
        {
            "name" : "Plane.010",
            "primitives" : [
                {
                    "attributes" : {
                        "POSITION" : 0,
                        "NORMAL" : 1,
                        "TEXCOORD_0" : 2
                    },
                    "indices" : 3,
                    "material" : 0
                }
            ]
        }
    ],
    "textures" : [
        {
            "sampler" : 0,
            "source" : 0
        },
        {
            "sampler" : 0,
            "source" : 1
        }
    ],
    "images" : [
        {
            "bufferView" : 4,
            "mimeType" : "image/png",
            "name" : "NormalMap"
        },
        {
            "bufferView" : 5,
            "mimeType" : "image/png",
            "name" : "BaseColor-alpha"
        }
    ],
    "accessors" : [
        {
            "bufferView" : 0,
            "componentType" : 5126,
            "count" : 4,
            "max" : [
                62.36669921875,
                -0.03921985253691673,
                51.83391571044922
            ],
            "min" : [
                -47.814754486083984,
                -0.03921985253691673,
                -22.64554214477539
            ],
            "type" : "VEC3"
        },
        {
            "bufferView" : 1,
            "componentType" : 5126,
            "count" : 4,
            "type" : "VEC3"
        },
        {
            "bufferView" : 2,
            "componentType" : 5126,
            "count" : 4,
            "type" : "VEC2"
        },
        {
            "bufferView" : 3,
            "componentType" : 5123,
            "count" : 6,
            "type" : "SCALAR"
        }
    ],
    "bufferViews" : [
        {
            "buffer" : 0,
            "byteLength" : 48,
            "byteOffset" : 0
        },
        {
            "buffer" : 0,
            "byteLength" : 48,
            "byteOffset" : 48
        },
        {
            "buffer" : 0,
            "byteLength" : 32,
            "byteOffset" : 96
        },
        {
            "buffer" : 0,
            "byteLength" : 12,
            "byteOffset" : 128
        },
        {
            "buffer" : 0,
            "byteLength" : 1315079,
            "byteOffset" : 140
        },
        {
            "buffer" : 0,
            "byteLength" : 999524,
            "byteOffset" : 1315220
        }
    ],
    "samplers" : [
        {
            "magFilter" : 9729,
            "minFilter" : 9987
        }
    ],
    "buffers" : [
        {
            "byteLength" : 2314744,
            "uri" : "data:application/octet-stream;base64,"
        }
    ]
}
