{
    "asset" : {
        "generator" : "Khronos glTF Blender I/O v1.7.33",
        "version" : "2.0"
    },
    "scene" : 0,
    "scenes" : [
        {
            "name" : "Scene",
            "nodes" : [
                0
            ]
        }
    ],
    "nodes" : [
        {
            "mesh" : 0,
            "name" : "Text.002",
            "rotation" : [
                0.4475618302822113,
                0.5474380254745483,
                -0.5474380850791931,
                0.4475618004798889
            ],
            "scale" : [
                0.32540154457092285,
                0.32540154457092285,
                0.32540154457092285
            ],
            "translation" : [
                -6.681402206420898,
                2.2548251152038574,
                14.552538871765137
            ]
        }
    ],
    "materials" : [
        {
            "doubleSided" : true,
            "name" : "TorreVentanas",
            "pbrMetallicRoughness" : {
                "baseColorFactor" : [
                    0.018566593527793884,
                    0.10660996288061142,
                    0.8000000715255737,
                    1
                ],
                "metallicFactor" : 0,
                "roughnessFactor" : 0.12893080711364746
            }
        }
    ],
    "meshes" : [
        {
            "name" : "Text.002",
            "primitives" : [
                {
                    "attributes" : {
                        "POSITION" : 0,
                        "NORMAL" : 1,
                        "TEXCOORD_0" : 2
                    },
                    "indices" : 3,
                    "material" : 0
                }
            ]
        }
    ],
    "accessors" : [
        {
            "bufferView" : 0,
            "componentType" : 5126,
            "count" : 1056,
            "max" : [
                3.2190001010894775,
                0.05064290016889572,
                -0.00037032365798950195
            ],
            "min" : [
                0,
                -0.04999999701976776,
                -0.6860000491142273
            ],
            "type" : "VEC3"
        },
        {
            "bufferView" : 1,
            "componentType" : 5126,
            "count" : 1056,
            "type" : "VEC3"
        },
        {
            "bufferView" : 2,
            "componentType" : 5126,
            "count" : 1056,
            "type" : "VEC2"
        },
        {
            "bufferView" : 3,
            "componentType" : 5123,
            "count" : 1632,
            "type" : "SCALAR"
        }
    ],
    "bufferViews" : [
        {
            "buffer" : 0,
            "byteLength" : 12672,
            "byteOffset" : 0
        },
        {
            "buffer" : 0,
            "byteLength" : 12672,
            "byteOffset" : 12672
        },
        {
            "buffer" : 0,
            "byteLength" : 8448,
            "byteOffset" : 25344
        },
        {
            "buffer" : 0,
            "byteLength" : 3264,
            "byteOffset" : 33792
        }
    ],
    "buffers" : [
        {
            "byteLength" : 37056,
            "uri" : "data:application/octet-stream;base64,"
        }
    ]
}
