{
    "asset" : {
        "generator" : "Khronos glTF Blender I/O v1.7.33",
        "version" : "2.0"
    },
    "scene" : 0,
    "scenes" : [
        {
            "name" : "Scene",
            "nodes" : [
                0
            ]
        }
    ],
    "nodes" : [
        {
            "mesh" : 0,
            "name" : "Text.004",
            "rotation" : [
                0.27839797735214233,
                0.6499958038330078,
                -0.6499958634376526,
                0.27839797735214233
            ],
            "scale" : [
                -0.32540151476860046,
                -0.32540151476860046,
                0.32540154457092285
            ],
            "translation" : [
                13.842597007751465,
                2.2548251152038574,
                35.50244903564453
            ]
        }
    ],
    "materials" : [
        {
            "doubleSided" : true,
            "name" : "TorreVentanas",
            "pbrMetallicRoughness" : {
                "baseColorFactor" : [
                    0.018566593527793884,
                    0.10660996288061142,
                    0.8000000715255737,
                    1
                ],
                "metallicFactor" : 0,
                "roughnessFactor" : 0.12893080711364746
            }
        }
    ],
    "meshes" : [
        {
            "name" : "Text.005",
            "primitives" : [
                {
                    "attributes" : {
                        "POSITION" : 0,
                        "NORMAL" : 1,
                        "TEXCOORD_0" : 2
                    },
                    "indices" : 3,
                    "material" : 0
                }
            ]
        }
    ],
    "accessors" : [
        {
            "bufferView" : 0,
            "componentType" : 5126,
            "count" : 5158,
            "max" : [
                10.040000915527344,
                0.0522301122546196,
                0.010006427764892578
            ],
            "min" : [
                0.07500000298023224,
                -0.04999999701976776,
                -0.6910000443458557
            ],
            "type" : "VEC3"
        },
        {
            "bufferView" : 1,
            "componentType" : 5126,
            "count" : 5158,
            "type" : "VEC3"
        },
        {
            "bufferView" : 2,
            "componentType" : 5126,
            "count" : 5158,
            "type" : "VEC2"
        },
        {
            "bufferView" : 3,
            "componentType" : 5123,
            "count" : 8172,
            "type" : "SCALAR"
        }
    ],
    "bufferViews" : [
        {
            "buffer" : 0,
            "byteLength" : 61896,
            "byteOffset" : 0
        },
        {
            "buffer" : 0,
            "byteLength" : 61896,
            "byteOffset" : 61896
        },
        {
            "buffer" : 0,
            "byteLength" : 41264,
            "byteOffset" : 123792
        },
        {
            "buffer" : 0,
            "byteLength" : 16344,
            "byteOffset" : 165056
        }
    ],
    "buffers" : [
        {
            "byteLength" : 181400,
            "uri" : "data:application/octet-stream;base64,"
        }
    ]
}
