{
    "asset" : {
        "generator" : "Khronos glTF Blender I/O v1.7.33",
        "version" : "2.0"
    },
    "scene" : 0,
    "scenes" : [
        {
            "name" : "Scene",
            "nodes" : [
                0,
                1,
                2,
                3,
                4,
                5,
                6,
                7,
                8
            ]
        }
    ],
    "nodes" : [
        {
            "mesh" : 0,
            "name" : "Text.069",
            "rotation" : [
                0.7071037292480469,
                -0.002089702757075429,
                0.002089702757075429,
                0.7071036696434021
            ],
            "scale" : [
                0.3161202669143677,
                0.3161202669143677,
                0.3161202669143677
            ],
            "translation" : [
                -1.6764498949050903,
                1.4135292768478394,
                -9.046634674072266
            ]
        },
        {
            "mesh" : 1,
            "name" : "Text.070",
            "rotation" : [
                0.7071037292480469,
                -0.002089702757075429,
                0.002089702757075429,
                0.7071036696434021
            ],
            "scale" : [
                0.3161202669143677,
                0.3161202669143677,
                0.3161202669143677
            ],
            "translation" : [
                -1.7047975063323975,
                1.4135292768478394,
                -8.075727462768555
            ]
        },
        {
            "mesh" : 2,
            "name" : "Text.071",
            "rotation" : [
                0.7071037292480469,
                -0.002089702757075429,
                0.002089702757075429,
                0.7071036696434021
            ],
            "scale" : [
                0.3161202669143677,
                0.3161202669143677,
                0.3161202669143677
            ],
            "translation" : [
                0.952796220779419,
                1.4135292768478394,
                -8.564724922180176
            ]
        },
        {
            "mesh" : 3,
            "name" : "Text.072",
            "rotation" : [
                0.7071037292480469,
                -0.002089702757075429,
                0.002089702757075429,
                0.7071036696434021
            ],
            "scale" : [
                0.3161202669143677,
                0.3161202669143677,
                0.3161202669143677
            ],
            "translation" : [
                0.6551457643508911,
                1.4135292768478394,
                -7.544209003448486
            ]
        },
        {
            "mesh" : 4,
            "name" : "Text.073",
            "rotation" : [
                0.7071037292480469,
                -0.002089702757075429,
                0.002089702757075429,
                0.7071036696434021
            ],
            "scale" : [
                0.3161202669143677,
                0.3161202669143677,
                0.3161202669143677
            ],
            "translation" : [
                1.144142985343933,
                1.4135292768478394,
                -10.428584098815918
            ]
        },
        {
            "mesh" : 5,
            "name" : "Text.077",
            "rotation" : [
                0.7071037292480469,
                -0.002089702757075429,
                0.002089702757075429,
                0.7071036696434021
            ],
            "scale" : [
                0.3161202669143677,
                0.3161202669143677,
                0.3161202669143677
            ],
            "translation" : [
                -1.5347106456756592,
                1.4135292768478394,
                -14.21583366394043
            ]
        },
        {
            "mesh" : 6,
            "name" : "Text.078",
            "rotation" : [
                0.7071037292480469,
                -0.002089702757075429,
                0.002089702757075429,
                0.7071036696434021
            ],
            "scale" : [
                0.3161202669143677,
                0.3161202669143677,
                0.3161202669143677
            ],
            "translation" : [
                0.9910669326782227,
                1.4135292768478394,
                -14.726091384887695
            ]
        },
        {
            "mesh" : 7,
            "name" : "Text.079",
            "rotation" : [
                0.7071037292480469,
                -0.002089702757075429,
                0.002089702757075429,
                0.7071036696434021
            ],
            "scale" : [
                0.3161202669143677,
                0.3161202669143677,
                0.3161202669143677
            ],
            "translation" : [
                1.0335884094238281,
                1.4135292768478394,
                -13.203821182250977
            ]
        },
        {
            "mesh" : 8,
            "name" : "Text.081",
            "rotation" : [
                0.7071037292480469,
                -0.002089702757075429,
                0.002089702757075429,
                0.7071036696434021
            ],
            "scale" : [
                0.3161202669143677,
                0.3161202669143677,
                0.3161202669143677
            ],
            "translation" : [
                3.4218790531158447,
                1.4135292768478394,
                -12.395912170410156
            ]
        }
    ],
    "materials" : [
        {
            "doubleSided" : true,
            "name" : "Texto",
            "pbrMetallicRoughness" : {
                "baseColorFactor" : [
                    0.015420391224324703,
                    0.04187585785984993,
                    0.8000000715255737,
                    1
                ],
                "metallicFactor" : 0,
                "roughnessFactor" : 0.5
            }
        }
    ],
    "meshes" : [
        {
            "name" : "Text.065",
            "primitives" : [
                {
                    "attributes" : {
                        "POSITION" : 0,
                        "NORMAL" : 1,
                        "TEXCOORD_0" : 2
                    },
                    "indices" : 3,
                    "material" : 0
                }
            ]
        },
        {
            "name" : "Text.066",
            "primitives" : [
                {
                    "attributes" : {
                        "POSITION" : 4,
                        "NORMAL" : 5,
                        "TEXCOORD_0" : 6
                    },
                    "indices" : 7,
                    "material" : 0
                }
            ]
        },
        {
            "name" : "Text.067",
            "primitives" : [
                {
                    "attributes" : {
                        "POSITION" : 8,
                        "NORMAL" : 9,
                        "TEXCOORD_0" : 10
                    },
                    "indices" : 11,
                    "material" : 0
                }
            ]
        },
        {
            "name" : "Text.068",
            "primitives" : [
                {
                    "attributes" : {
                        "POSITION" : 12,
                        "NORMAL" : 13,
                        "TEXCOORD_0" : 14
                    },
                    "indices" : 15,
                    "material" : 0
                }
            ]
        },
        {
            "name" : "Text.069",
            "primitives" : [
                {
                    "attributes" : {
                        "POSITION" : 16,
                        "NORMAL" : 17,
                        "TEXCOORD_0" : 18
                    },
                    "indices" : 19,
                    "material" : 0
                }
            ]
        },
        {
            "name" : "Text.073",
            "primitives" : [
                {
                    "attributes" : {
                        "POSITION" : 20,
                        "NORMAL" : 21,
                        "TEXCOORD_0" : 22
                    },
                    "indices" : 23,
                    "material" : 0
                }
            ]
        },
        {
            "name" : "Text.074",
            "primitives" : [
                {
                    "attributes" : {
                        "POSITION" : 24,
                        "NORMAL" : 25,
                        "TEXCOORD_0" : 26
                    },
                    "indices" : 27,
                    "material" : 0
                }
            ]
        },
        {
            "name" : "Text.075",
            "primitives" : [
                {
                    "attributes" : {
                        "POSITION" : 28,
                        "NORMAL" : 29,
                        "TEXCOORD_0" : 30
                    },
                    "indices" : 31,
                    "material" : 0
                }
            ]
        },
        {
            "name" : "Text.077",
            "primitives" : [
                {
                    "attributes" : {
                        "POSITION" : 32,
                        "NORMAL" : 33,
                        "TEXCOORD_0" : 34
                    },
                    "indices" : 35,
                    "material" : 0
                }
            ]
        }
    ],
    "accessors" : [
        {
            "bufferView" : 0,
            "componentType" : 5126,
            "count" : 49,
            "max" : [
                1.999000072479248,
                0,
                0
            ],
            "min" : [
                0.07600000500679016,
                0,
                -0.6910000443458557
            ],
            "type" : "VEC3"
        },
        {
            "bufferView" : 1,
            "componentType" : 5126,
            "count" : 49,
            "type" : "VEC3"
        },
        {
            "bufferView" : 2,
            "componentType" : 5126,
            "count" : 49,
            "type" : "VEC2"
        },
        {
            "bufferView" : 3,
            "componentType" : 5123,
            "count" : 108,
            "type" : "SCALAR"
        },
        {
            "bufferView" : 4,
            "componentType" : 5126,
            "count" : 157,
            "max" : [
                1.99399995803833,
                0,
                0
            ],
            "min" : [
                0.07600000500679016,
                0,
                -0.6910000443458557
            ],
            "type" : "VEC3"
        },
        {
            "bufferView" : 5,
            "componentType" : 5126,
            "count" : 157,
            "type" : "VEC3"
        },
        {
            "bufferView" : 6,
            "componentType" : 5126,
            "count" : 157,
            "type" : "VEC2"
        },
        {
            "bufferView" : 7,
            "componentType" : 5123,
            "count" : 324,
            "type" : "SCALAR"
        },
        {
            "bufferView" : 8,
            "componentType" : 5126,
            "count" : 229,
            "max" : [
                1.9520000219345093,
                0,
                0.009000000543892384
            ],
            "min" : [
                0.07600000500679016,
                0,
                -0.6910000443458557
            ],
            "type" : "VEC3"
        },
        {
            "bufferView" : 9,
            "componentType" : 5126,
            "count" : 229,
            "type" : "VEC3"
        },
        {
            "bufferView" : 10,
            "componentType" : 5126,
            "count" : 229,
            "type" : "VEC2"
        },
        {
            "bufferView" : 11,
            "componentType" : 5123,
            "count" : 498,
            "type" : "SCALAR"
        },
        {
            "bufferView" : 12,
            "componentType" : 5126,
            "count" : 35,
            "max" : [
                1.8280000686645508,
                0,
                0
            ],
            "min" : [
                0.07600000500679016,
                0,
                -0.6820000410079956
            ],
            "type" : "VEC3"
        },
        {
            "bufferView" : 13,
            "componentType" : 5126,
            "count" : 35,
            "type" : "VEC3"
        },
        {
            "bufferView" : 14,
            "componentType" : 5126,
            "count" : 35,
            "type" : "VEC2"
        },
        {
            "bufferView" : 15,
            "componentType" : 5123,
            "count" : 69,
            "type" : "SCALAR"
        },
        {
            "bufferView" : 16,
            "componentType" : 5126,
            "count" : 145,
            "max" : [
                1.687999963760376,
                0,
                0.009000000543892384
            ],
            "min" : [
                0.07600000500679016,
                0,
                -0.6820000410079956
            ],
            "type" : "VEC3"
        },
        {
            "bufferView" : 17,
            "componentType" : 5126,
            "count" : 145,
            "type" : "VEC3"
        },
        {
            "bufferView" : 18,
            "componentType" : 5126,
            "count" : 145,
            "type" : "VEC2"
        },
        {
            "bufferView" : 19,
            "componentType" : 5123,
            "count" : 291,
            "type" : "SCALAR"
        },
        {
            "bufferView" : 20,
            "componentType" : 5126,
            "count" : 292,
            "max" : [
                1.996000051498413,
                0,
                0.009000000543892384
            ],
            "min" : [
                0.07600000500679016,
                0,
                -0.6910000443458557
            ],
            "type" : "VEC3"
        },
        {
            "bufferView" : 21,
            "componentType" : 5126,
            "count" : 292,
            "type" : "VEC3"
        },
        {
            "bufferView" : 22,
            "componentType" : 5126,
            "count" : 292,
            "type" : "VEC2"
        },
        {
            "bufferView" : 23,
            "componentType" : 5123,
            "count" : 645,
            "type" : "SCALAR"
        },
        {
            "bufferView" : 24,
            "componentType" : 5126,
            "count" : 214,
            "max" : [
                1.9890000820159912,
                0,
                0.009000000543892384
            ],
            "min" : [
                0.07600000500679016,
                0,
                -0.6910000443458557
            ],
            "type" : "VEC3"
        },
        {
            "bufferView" : 25,
            "componentType" : 5126,
            "count" : 214,
            "type" : "VEC3"
        },
        {
            "bufferView" : 26,
            "componentType" : 5126,
            "count" : 214,
            "type" : "VEC2"
        },
        {
            "bufferView" : 27,
            "componentType" : 5123,
            "count" : 462,
            "type" : "SCALAR"
        },
        {
            "bufferView" : 28,
            "componentType" : 5126,
            "count" : 40,
            "max" : [
                2.0180001258850098,
                0,
                0.009000000543892384
            ],
            "min" : [
                0.07600000500679016,
                0,
                -0.6820000410079956
            ],
            "type" : "VEC3"
        },
        {
            "bufferView" : 29,
            "componentType" : 5126,
            "count" : 40,
            "type" : "VEC3"
        },
        {
            "bufferView" : 30,
            "componentType" : 5126,
            "count" : 40,
            "type" : "VEC2"
        },
        {
            "bufferView" : 31,
            "componentType" : 5123,
            "count" : 75,
            "type" : "SCALAR"
        },
        {
            "bufferView" : 32,
            "componentType" : 5126,
            "count" : 197,
            "max" : [
                1.9930000305175781,
                0,
                0.009000000543892384
            ],
            "min" : [
                0.07600000500679016,
                0,
                -0.6910000443458557
            ],
            "type" : "VEC3"
        },
        {
            "bufferView" : 33,
            "componentType" : 5126,
            "count" : 197,
            "type" : "VEC3"
        },
        {
            "bufferView" : 34,
            "componentType" : 5126,
            "count" : 197,
            "type" : "VEC2"
        },
        {
            "bufferView" : 35,
            "componentType" : 5123,
            "count" : 426,
            "type" : "SCALAR"
        }
    ],
    "bufferViews" : [
        {
            "buffer" : 0,
            "byteLength" : 588,
            "byteOffset" : 0
        },
        {
            "buffer" : 0,
            "byteLength" : 588,
            "byteOffset" : 588
        },
        {
            "buffer" : 0,
            "byteLength" : 392,
            "byteOffset" : 1176
        },
        {
            "buffer" : 0,
            "byteLength" : 216,
            "byteOffset" : 1568
        },
        {
            "buffer" : 0,
            "byteLength" : 1884,
            "byteOffset" : 1784
        },
        {
            "buffer" : 0,
            "byteLength" : 1884,
            "byteOffset" : 3668
        },
        {
            "buffer" : 0,
            "byteLength" : 1256,
            "byteOffset" : 5552
        },
        {
            "buffer" : 0,
            "byteLength" : 648,
            "byteOffset" : 6808
        },
        {
            "buffer" : 0,
            "byteLength" : 2748,
            "byteOffset" : 7456
        },
        {
            "buffer" : 0,
            "byteLength" : 2748,
            "byteOffset" : 10204
        },
        {
            "buffer" : 0,
            "byteLength" : 1832,
            "byteOffset" : 12952
        },
        {
            "buffer" : 0,
            "byteLength" : 996,
            "byteOffset" : 14784
        },
        {
            "buffer" : 0,
            "byteLength" : 420,
            "byteOffset" : 15780
        },
        {
            "buffer" : 0,
            "byteLength" : 420,
            "byteOffset" : 16200
        },
        {
            "buffer" : 0,
            "byteLength" : 280,
            "byteOffset" : 16620
        },
        {
            "buffer" : 0,
            "byteLength" : 138,
            "byteOffset" : 16900
        },
        {
            "buffer" : 0,
            "byteLength" : 1740,
            "byteOffset" : 17040
        },
        {
            "buffer" : 0,
            "byteLength" : 1740,
            "byteOffset" : 18780
        },
        {
            "buffer" : 0,
            "byteLength" : 1160,
            "byteOffset" : 20520
        },
        {
            "buffer" : 0,
            "byteLength" : 582,
            "byteOffset" : 21680
        },
        {
            "buffer" : 0,
            "byteLength" : 3504,
            "byteOffset" : 22264
        },
        {
            "buffer" : 0,
            "byteLength" : 3504,
            "byteOffset" : 25768
        },
        {
            "buffer" : 0,
            "byteLength" : 2336,
            "byteOffset" : 29272
        },
        {
            "buffer" : 0,
            "byteLength" : 1290,
            "byteOffset" : 31608
        },
        {
            "buffer" : 0,
            "byteLength" : 2568,
            "byteOffset" : 32900
        },
        {
            "buffer" : 0,
            "byteLength" : 2568,
            "byteOffset" : 35468
        },
        {
            "buffer" : 0,
            "byteLength" : 1712,
            "byteOffset" : 38036
        },
        {
            "buffer" : 0,
            "byteLength" : 924,
            "byteOffset" : 39748
        },
        {
            "buffer" : 0,
            "byteLength" : 480,
            "byteOffset" : 40672
        },
        {
            "buffer" : 0,
            "byteLength" : 480,
            "byteOffset" : 41152
        },
        {
            "buffer" : 0,
            "byteLength" : 320,
            "byteOffset" : 41632
        },
        {
            "buffer" : 0,
            "byteLength" : 150,
            "byteOffset" : 41952
        },
        {
            "buffer" : 0,
            "byteLength" : 2364,
            "byteOffset" : 42104
        },
        {
            "buffer" : 0,
            "byteLength" : 2364,
            "byteOffset" : 44468
        },
        {
            "buffer" : 0,
            "byteLength" : 1576,
            "byteOffset" : 46832
        },
        {
            "buffer" : 0,
            "byteLength" : 852,
            "byteOffset" : 48408
        }
    ],
    "buffers" : [
        {
            "byteLength" : 49260,
            "uri" : "data:application/octet-stream;base64,"
        }
    ]
}
