{
    "asset" : {
        "generator" : "Khronos glTF Blender I/O v1.7.33",
        "version" : "2.0"
    },
    "scene" : 0,
    "scenes" : [
        {
            "name" : "Scene",
            "nodes" : [
                0
            ]
        }
    ],
    "nodes" : [
        {
            "mesh" : 0,
            "name" : "Text.042",
            "rotation" : [
                0.7071037292480469,
                -0.002089702757075429,
                0.002089702757075429,
                0.7071036696434021
            ],
            "scale" : [
                0.3161202669143677,
                0.3161202669143677,
                0.3161202669143677
            ],
            "translation" : [
                -12.91143798828125,
                1.4135292768478394,
                -1.3896585702896118
            ]
        }
    ],
    "materials" : [
        {
            "doubleSided" : true,
            "name" : "Texto",
            "pbrMetallicRoughness" : {
                "baseColorFactor" : [
                    0.015420391224324703,
                    0.04187585785984993,
                    0.8000000715255737,
                    1
                ],
                "metallicFactor" : 0,
                "roughnessFactor" : 0.5
            }
        }
    ],
    "meshes" : [
        {
            "name" : "Text.038",
            "primitives" : [
                {
                    "attributes" : {
                        "POSITION" : 0,
                        "NORMAL" : 1,
                        "TEXCOORD_0" : 2
                    },
                    "indices" : 3,
                    "material" : 0
                }
            ]
        }
    ],
    "accessors" : [
        {
            "bufferView" : 0,
            "componentType" : 5126,
            "count" : 176,
            "max" : [
                2.692000150680542,
                0,
                0
            ],
            "min" : [
                0.07500000298023224,
                0,
                -0.6910000443458557
            ],
            "type" : "VEC3"
        },
        {
            "bufferView" : 1,
            "componentType" : 5126,
            "count" : 176,
            "type" : "VEC3"
        },
        {
            "bufferView" : 2,
            "componentType" : 5126,
            "count" : 176,
            "type" : "VEC2"
        },
        {
            "bufferView" : 3,
            "componentType" : 5123,
            "count" : 363,
            "type" : "SCALAR"
        }
    ],
    "bufferViews" : [
        {
            "buffer" : 0,
            "byteLength" : 2112,
            "byteOffset" : 0
        },
        {
            "buffer" : 0,
            "byteLength" : 2112,
            "byteOffset" : 2112
        },
        {
            "buffer" : 0,
            "byteLength" : 1408,
            "byteOffset" : 4224
        },
        {
            "buffer" : 0,
            "byteLength" : 726,
            "byteOffset" : 5632
        }
    ],
    "buffers" : [
        {
            "byteLength" : 6360,
            "uri" : "data:application/octet-stream;base64,"
        }
    ]
}
