{
    "asset" : {
        "generator" : "Khronos glTF Blender I/O v1.7.33",
        "version" : "2.0"
    },
    "scene" : 0,
    "scenes" : [
        {
            "name" : "Scene",
            "nodes" : [
                0
            ]
        }
    ],
    "nodes" : [
        {
            "mesh" : 0,
            "name" : "Text.134",
            "rotation" : [
                0.7041096091270447,
                0.06503579765558243,
                -0.06503581255674362,
                0.7041096091270447
            ],
            "scale" : [
                0.3161202669143677,
                0.3161202669143677,
                0.3161202669143677
            ],
            "translation" : [
                8.886063575744629,
                1.399999976158142,
                30.964540481567383
            ]
        }
    ],
    "materials" : [
        {
            "doubleSided" : true,
            "name" : "Texto",
            "pbrMetallicRoughness" : {
                "baseColorFactor" : [
                    0.015420391224324703,
                    0.04187585785984993,
                    0.8000000715255737,
                    1
                ],
                "metallicFactor" : 0,
                "roughnessFactor" : 0.5
            }
        }
    ],
    "meshes" : [
        {
            "name" : "Text.130",
            "primitives" : [
                {
                    "attributes" : {
                        "POSITION" : 0,
                        "NORMAL" : 1,
                        "TEXCOORD_0" : 2
                    },
                    "indices" : 3,
                    "material" : 0
                }
            ]
        }
    ],
    "accessors" : [
        {
            "bufferView" : 0,
            "componentType" : 5126,
            "count" : 150,
            "max" : [
                2.6640000343322754,
                0,
                0.009000000543892384
            ],
            "min" : [
                0.07500000298023224,
                0,
                -0.6860000491142273
            ],
            "type" : "VEC3"
        },
        {
            "bufferView" : 1,
            "componentType" : 5126,
            "count" : 150,
            "type" : "VEC3"
        },
        {
            "bufferView" : 2,
            "componentType" : 5126,
            "count" : 150,
            "type" : "VEC2"
        },
        {
            "bufferView" : 3,
            "componentType" : 5123,
            "count" : 330,
            "type" : "SCALAR"
        }
    ],
    "bufferViews" : [
        {
            "buffer" : 0,
            "byteLength" : 1800,
            "byteOffset" : 0
        },
        {
            "buffer" : 0,
            "byteLength" : 1800,
            "byteOffset" : 1800
        },
        {
            "buffer" : 0,
            "byteLength" : 1200,
            "byteOffset" : 3600
        },
        {
            "buffer" : 0,
            "byteLength" : 660,
            "byteOffset" : 4800
        }
    ],
    "buffers" : [
        {
            "byteLength" : 5460,
            "uri" : "data:application/octet-stream;base64,"
        }
    ]
}
