{
    "asset" : {
        "generator" : "Khronos glTF Blender I/O v1.7.33",
        "version" : "2.0"
    },
    "scene" : 0,
    "scenes" : [
        {
            "name" : "Scene",
            "nodes" : [
                0
            ]
        }
    ],
    "nodes" : [
        {
            "mesh" : 0,
            "name" : "Text.003",
            "rotation" : [
                0.4388177990913391,
                0.5544717311859131,
                -0.5544717907905579,
                0.4388177990913391
            ],
            "scale" : [
                -0.32540151476860046,
                -0.32540151476860046,
                0.32540154457092285
            ],
            "translation" : [
                38.26551055908203,
                2.2548251152038574,
                13.965631484985352
            ]
        }
    ],
    "materials" : [
        {
            "doubleSided" : true,
            "name" : "TorreVentanas",
            "pbrMetallicRoughness" : {
                "baseColorFactor" : [
                    0.018566593527793884,
                    0.10660996288061142,
                    0.8000000715255737,
                    1
                ],
                "metallicFactor" : 0,
                "roughnessFactor" : 0.12893080711364746
            }
        }
    ],
    "meshes" : [
        {
            "name" : "Text.003",
            "primitives" : [
                {
                    "attributes" : {
                        "POSITION" : 0,
                        "NORMAL" : 1,
                        "TEXCOORD_0" : 2
                    },
                    "indices" : 3,
                    "material" : 0
                }
            ]
        }
    ],
    "accessors" : [
        {
            "bufferView" : 0,
            "componentType" : 5126,
            "count" : 7245,
            "max" : [
                10.20300006866455,
                0.04895457625389099,
                0.006629645824432373
            ],
            "min" : [
                0.07500000298023224,
                -0.04999999701976776,
                -0.6910000443458557
            ],
            "type" : "VEC3"
        },
        {
            "bufferView" : 1,
            "componentType" : 5126,
            "count" : 7245,
            "type" : "VEC3"
        },
        {
            "bufferView" : 2,
            "componentType" : 5126,
            "count" : 7245,
            "type" : "VEC2"
        },
        {
            "bufferView" : 3,
            "componentType" : 5123,
            "count" : 11748,
            "type" : "SCALAR"
        }
    ],
    "bufferViews" : [
        {
            "buffer" : 0,
            "byteLength" : 86940,
            "byteOffset" : 0
        },
        {
            "buffer" : 0,
            "byteLength" : 86940,
            "byteOffset" : 86940
        },
        {
            "buffer" : 0,
            "byteLength" : 57960,
            "byteOffset" : 173880
        },
        {
            "buffer" : 0,
            "byteLength" : 23496,
            "byteOffset" : 231840
        }
    ],
    "buffers" : [
        {
            "byteLength" : 255336,
            "uri" : "data:application/octet-stream;base64,"
        }
    ]
}
