{
    "asset" : {
        "generator" : "Khronos glTF Blender I/O v1.7.33",
        "version" : "2.0"
    },
    "scene" : 0,
    "scenes" : [
        {
            "name" : "Scene",
            "nodes" : [
                0,
                1,
                2,
                3,
                4,
                5,
                6,
                7,
                8
            ]
        }
    ],
    "nodes" : [
        {
            "mesh" : 0,
            "name" : "Text.053",
            "rotation" : [
                0.7071037292480469,
                -0.002089702757075429,
                0.002089702757075429,
                0.7071036696434021
            ],
            "scale" : [
                0.3161202669143677,
                0.3161202669143677,
                0.3161202669143677
            ],
            "translation" : [
                -12.079763412475586,
                1.4135292768478394,
                5.387235641479492
            ]
        },
        {
            "mesh" : 1,
            "name" : "Text.054",
            "rotation" : [
                0.7071037292480469,
                -0.002089702757075429,
                0.002089702757075429,
                0.7071036696434021
            ],
            "scale" : [
                0.3161202669143677,
                0.3161202669143677,
                0.3161202669143677
            ],
            "translation" : [
                -11.765104293823242,
                1.4135292768478394,
                2.6148335933685303
            ]
        },
        {
            "mesh" : 2,
            "name" : "Text.055",
            "rotation" : [
                0.7071037292480469,
                -0.002089702757075429,
                0.002089702757075429,
                0.7071036696434021
            ],
            "scale" : [
                0.3161202669143677,
                0.3161202669143677,
                0.3161202669143677
            ],
            "translation" : [
                -9.171292304992676,
                1.4135292768478394,
                1.951498031616211
            ]
        },
        {
            "mesh" : 3,
            "name" : "Text.056",
            "rotation" : [
                0.7071037292480469,
                -0.002089702757075429,
                0.002089702757075429,
                0.7071036696434021
            ],
            "scale" : [
                0.3161202669143677,
                0.3161202669143677,
                0.3161202669143677
            ],
            "translation" : [
                -6.883915901184082,
                1.4135292768478394,
                1.9650179147720337
            ]
        },
        {
            "mesh" : 4,
            "name" : "Text.057",
            "rotation" : [
                0.7071037292480469,
                -0.002089702757075429,
                0.002089702757075429,
                0.7071036696434021
            ],
            "scale" : [
                0.3161202669143677,
                0.3161202669143677,
                0.3161202669143677
            ],
            "translation" : [
                -10.889442443847656,
                1.4135292768478394,
                3.4107489585876465
            ]
        },
        {
            "mesh" : 5,
            "name" : "Text.058",
            "rotation" : [
                0.7071037292480469,
                -0.002089702757075429,
                0.002089702757075429,
                0.7071036696434021
            ],
            "scale" : [
                0.3161202669143677,
                0.3161202669143677,
                0.3161202669143677
            ],
            "translation" : [
                -6.084512233734131,
                1.4135292768478394,
                -1.3006339073181152
            ]
        },
        {
            "mesh" : 6,
            "name" : "Text.059",
            "rotation" : [
                0.7071037292480469,
                -0.002089702757075429,
                0.002089702757075429,
                0.7071036696434021
            ],
            "scale" : [
                0.3161202669143677,
                0.3161202669143677,
                0.3161202669143677
            ],
            "translation" : [
                -4.460190773010254,
                1.4135292768478394,
                -0.19507479667663574
            ]
        },
        {
            "mesh" : 7,
            "name" : "Text.060",
            "rotation" : [
                0.7071037292480469,
                -0.002089702757075429,
                0.002089702757075429,
                0.7071036696434021
            ],
            "scale" : [
                0.3161202669143677,
                0.3161202669143677,
                0.3161202669143677
            ],
            "translation" : [
                -4.579250812530518,
                1.4135292768478394,
                1.250656247138977
            ]
        },
        {
            "mesh" : 8,
            "name" : "Text.061",
            "rotation" : [
                0.7071037292480469,
                -0.002089702757075429,
                0.002089702757075429,
                0.7071036696434021
            ],
            "scale" : [
                0.3161202669143677,
                0.3161202669143677,
                0.3161202669143677
            ],
            "translation" : [
                -9.285435676574707,
                1.4135292768478394,
                -1.9266448020935059
            ]
        }
    ],
    "materials" : [
        {
            "doubleSided" : true,
            "name" : "Texto",
            "pbrMetallicRoughness" : {
                "baseColorFactor" : [
                    0.015420391224324703,
                    0.04187585785984993,
                    0.8000000715255737,
                    1
                ],
                "metallicFactor" : 0,
                "roughnessFactor" : 0.5
            }
        }
    ],
    "meshes" : [
        {
            "name" : "Text.049",
            "primitives" : [
                {
                    "attributes" : {
                        "POSITION" : 0,
                        "NORMAL" : 1,
                        "TEXCOORD_0" : 2
                    },
                    "indices" : 3,
                    "material" : 0
                }
            ]
        },
        {
            "name" : "Text.050",
            "primitives" : [
                {
                    "attributes" : {
                        "POSITION" : 4,
                        "NORMAL" : 5,
                        "TEXCOORD_0" : 6
                    },
                    "indices" : 7,
                    "material" : 0
                }
            ]
        },
        {
            "name" : "Text.051",
            "primitives" : [
                {
                    "attributes" : {
                        "POSITION" : 8,
                        "NORMAL" : 9,
                        "TEXCOORD_0" : 10
                    },
                    "indices" : 11,
                    "material" : 0
                }
            ]
        },
        {
            "name" : "Text.052",
            "primitives" : [
                {
                    "attributes" : {
                        "POSITION" : 12,
                        "NORMAL" : 13,
                        "TEXCOORD_0" : 14
                    },
                    "indices" : 15,
                    "material" : 0
                }
            ]
        },
        {
            "name" : "Text.053",
            "primitives" : [
                {
                    "attributes" : {
                        "POSITION" : 16,
                        "NORMAL" : 17,
                        "TEXCOORD_0" : 18
                    },
                    "indices" : 19,
                    "material" : 0
                }
            ]
        },
        {
            "name" : "Text.054",
            "primitives" : [
                {
                    "attributes" : {
                        "POSITION" : 20,
                        "NORMAL" : 21,
                        "TEXCOORD_0" : 22
                    },
                    "indices" : 23,
                    "material" : 0
                }
            ]
        },
        {
            "name" : "Text.055",
            "primitives" : [
                {
                    "attributes" : {
                        "POSITION" : 24,
                        "NORMAL" : 25,
                        "TEXCOORD_0" : 26
                    },
                    "indices" : 27,
                    "material" : 0
                }
            ]
        },
        {
            "name" : "Text.056",
            "primitives" : [
                {
                    "attributes" : {
                        "POSITION" : 28,
                        "NORMAL" : 29,
                        "TEXCOORD_0" : 30
                    },
                    "indices" : 31,
                    "material" : 0
                }
            ]
        },
        {
            "name" : "Text.057",
            "primitives" : [
                {
                    "attributes" : {
                        "POSITION" : 32,
                        "NORMAL" : 33,
                        "TEXCOORD_0" : 34
                    },
                    "indices" : 35,
                    "material" : 0
                }
            ]
        }
    ],
    "accessors" : [
        {
            "bufferView" : 0,
            "componentType" : 5126,
            "count" : 146,
            "max" : [
                2.3489999771118164,
                0,
                0.009000000543892384
            ],
            "min" : [
                0.07600000500679016,
                0,
                -0.6910000443458557
            ],
            "type" : "VEC3"
        },
        {
            "bufferView" : 1,
            "componentType" : 5126,
            "count" : 146,
            "type" : "VEC3"
        },
        {
            "bufferView" : 2,
            "componentType" : 5126,
            "count" : 146,
            "type" : "VEC2"
        },
        {
            "bufferView" : 3,
            "componentType" : 5123,
            "count" : 336,
            "type" : "SCALAR"
        },
        {
            "bufferView" : 4,
            "componentType" : 5126,
            "count" : 268,
            "max" : [
                2.515000104904175,
                0,
                0.009000000543892384
            ],
            "min" : [
                0.07600000500679016,
                0,
                -0.6910000443458557
            ],
            "type" : "VEC3"
        },
        {
            "bufferView" : 5,
            "componentType" : 5126,
            "count" : 268,
            "type" : "VEC3"
        },
        {
            "bufferView" : 6,
            "componentType" : 5126,
            "count" : 268,
            "type" : "VEC2"
        },
        {
            "bufferView" : 7,
            "componentType" : 5123,
            "count" : 591,
            "type" : "SCALAR"
        },
        {
            "bufferView" : 8,
            "componentType" : 5126,
            "count" : 157,
            "max" : [
                2.5199999809265137,
                0,
                0.009000000543892384
            ],
            "min" : [
                0.07600000500679016,
                0,
                -0.6910000443458557
            ],
            "type" : "VEC3"
        },
        {
            "bufferView" : 9,
            "componentType" : 5126,
            "count" : 157,
            "type" : "VEC3"
        },
        {
            "bufferView" : 10,
            "componentType" : 5126,
            "count" : 157,
            "type" : "VEC2"
        },
        {
            "bufferView" : 11,
            "componentType" : 5123,
            "count" : 375,
            "type" : "SCALAR"
        },
        {
            "bufferView" : 12,
            "componentType" : 5126,
            "count" : 242,
            "max" : [
                2.486999988555908,
                0,
                0.009000000543892384
            ],
            "min" : [
                0.07600000500679016,
                0,
                -0.6910000443458557
            ],
            "type" : "VEC3"
        },
        {
            "bufferView" : 13,
            "componentType" : 5126,
            "count" : 242,
            "type" : "VEC3"
        },
        {
            "bufferView" : 14,
            "componentType" : 5126,
            "count" : 242,
            "type" : "VEC2"
        },
        {
            "bufferView" : 15,
            "componentType" : 5123,
            "count" : 558,
            "type" : "SCALAR"
        },
        {
            "bufferView" : 16,
            "componentType" : 5126,
            "count" : 339,
            "max" : [
                2.4730000495910645,
                0,
                0.009000000543892384
            ],
            "min" : [
                0.07600000500679016,
                0,
                -0.6910000443458557
            ],
            "type" : "VEC3"
        },
        {
            "bufferView" : 17,
            "componentType" : 5126,
            "count" : 339,
            "type" : "VEC3"
        },
        {
            "bufferView" : 18,
            "componentType" : 5126,
            "count" : 339,
            "type" : "VEC2"
        },
        {
            "bufferView" : 19,
            "componentType" : 5123,
            "count" : 765,
            "type" : "SCALAR"
        },
        {
            "bufferView" : 20,
            "componentType" : 5126,
            "count" : 409,
            "max" : [
                2.5169999599456787,
                0,
                0.009000000543892384
            ],
            "min" : [
                0.07600000500679016,
                0,
                -0.6910000443458557
            ],
            "type" : "VEC3"
        },
        {
            "bufferView" : 21,
            "componentType" : 5126,
            "count" : 409,
            "type" : "VEC3"
        },
        {
            "bufferView" : 22,
            "componentType" : 5126,
            "count" : 409,
            "type" : "VEC2"
        },
        {
            "bufferView" : 23,
            "componentType" : 5123,
            "count" : 912,
            "type" : "SCALAR"
        },
        {
            "bufferView" : 24,
            "componentType" : 5126,
            "count" : 150,
            "max" : [
                2.5390000343322754,
                0,
                0.009000000543892384
            ],
            "min" : [
                0.07600000500679016,
                0,
                -0.6910000443458557
            ],
            "type" : "VEC3"
        },
        {
            "bufferView" : 25,
            "componentType" : 5126,
            "count" : 150,
            "type" : "VEC3"
        },
        {
            "bufferView" : 26,
            "componentType" : 5126,
            "count" : 150,
            "type" : "VEC2"
        },
        {
            "bufferView" : 27,
            "componentType" : 5123,
            "count" : 342,
            "type" : "SCALAR"
        },
        {
            "bufferView" : 28,
            "componentType" : 5126,
            "count" : 321,
            "max" : [
                2.5139999389648438,
                0,
                0.009000000543892384
            ],
            "min" : [
                0.07600000500679016,
                0,
                -0.6910000443458557
            ],
            "type" : "VEC3"
        },
        {
            "bufferView" : 29,
            "componentType" : 5126,
            "count" : 321,
            "type" : "VEC3"
        },
        {
            "bufferView" : 30,
            "componentType" : 5126,
            "count" : 321,
            "type" : "VEC2"
        },
        {
            "bufferView" : 31,
            "componentType" : 5123,
            "count" : 693,
            "type" : "SCALAR"
        },
        {
            "bufferView" : 32,
            "componentType" : 5126,
            "count" : 320,
            "max" : [
                2.509999990463257,
                0,
                0.009000000543892384
            ],
            "min" : [
                0.07600000500679016,
                0,
                -0.6910000443458557
            ],
            "type" : "VEC3"
        },
        {
            "bufferView" : 33,
            "componentType" : 5126,
            "count" : 320,
            "type" : "VEC3"
        },
        {
            "bufferView" : 34,
            "componentType" : 5126,
            "count" : 320,
            "type" : "VEC2"
        },
        {
            "bufferView" : 35,
            "componentType" : 5123,
            "count" : 729,
            "type" : "SCALAR"
        }
    ],
    "bufferViews" : [
        {
            "buffer" : 0,
            "byteLength" : 1752,
            "byteOffset" : 0
        },
        {
            "buffer" : 0,
            "byteLength" : 1752,
            "byteOffset" : 1752
        },
        {
            "buffer" : 0,
            "byteLength" : 1168,
            "byteOffset" : 3504
        },
        {
            "buffer" : 0,
            "byteLength" : 672,
            "byteOffset" : 4672
        },
        {
            "buffer" : 0,
            "byteLength" : 3216,
            "byteOffset" : 5344
        },
        {
            "buffer" : 0,
            "byteLength" : 3216,
            "byteOffset" : 8560
        },
        {
            "buffer" : 0,
            "byteLength" : 2144,
            "byteOffset" : 11776
        },
        {
            "buffer" : 0,
            "byteLength" : 1182,
            "byteOffset" : 13920
        },
        {
            "buffer" : 0,
            "byteLength" : 1884,
            "byteOffset" : 15104
        },
        {
            "buffer" : 0,
            "byteLength" : 1884,
            "byteOffset" : 16988
        },
        {
            "buffer" : 0,
            "byteLength" : 1256,
            "byteOffset" : 18872
        },
        {
            "buffer" : 0,
            "byteLength" : 750,
            "byteOffset" : 20128
        },
        {
            "buffer" : 0,
            "byteLength" : 2904,
            "byteOffset" : 20880
        },
        {
            "buffer" : 0,
            "byteLength" : 2904,
            "byteOffset" : 23784
        },
        {
            "buffer" : 0,
            "byteLength" : 1936,
            "byteOffset" : 26688
        },
        {
            "buffer" : 0,
            "byteLength" : 1116,
            "byteOffset" : 28624
        },
        {
            "buffer" : 0,
            "byteLength" : 4068,
            "byteOffset" : 29740
        },
        {
            "buffer" : 0,
            "byteLength" : 4068,
            "byteOffset" : 33808
        },
        {
            "buffer" : 0,
            "byteLength" : 2712,
            "byteOffset" : 37876
        },
        {
            "buffer" : 0,
            "byteLength" : 1530,
            "byteOffset" : 40588
        },
        {
            "buffer" : 0,
            "byteLength" : 4908,
            "byteOffset" : 42120
        },
        {
            "buffer" : 0,
            "byteLength" : 4908,
            "byteOffset" : 47028
        },
        {
            "buffer" : 0,
            "byteLength" : 3272,
            "byteOffset" : 51936
        },
        {
            "buffer" : 0,
            "byteLength" : 1824,
            "byteOffset" : 55208
        },
        {
            "buffer" : 0,
            "byteLength" : 1800,
            "byteOffset" : 57032
        },
        {
            "buffer" : 0,
            "byteLength" : 1800,
            "byteOffset" : 58832
        },
        {
            "buffer" : 0,
            "byteLength" : 1200,
            "byteOffset" : 60632
        },
        {
            "buffer" : 0,
            "byteLength" : 684,
            "byteOffset" : 61832
        },
        {
            "buffer" : 0,
            "byteLength" : 3852,
            "byteOffset" : 62516
        },
        {
            "buffer" : 0,
            "byteLength" : 3852,
            "byteOffset" : 66368
        },
        {
            "buffer" : 0,
            "byteLength" : 2568,
            "byteOffset" : 70220
        },
        {
            "buffer" : 0,
            "byteLength" : 1386,
            "byteOffset" : 72788
        },
        {
            "buffer" : 0,
            "byteLength" : 3840,
            "byteOffset" : 74176
        },
        {
            "buffer" : 0,
            "byteLength" : 3840,
            "byteOffset" : 78016
        },
        {
            "buffer" : 0,
            "byteLength" : 2560,
            "byteOffset" : 81856
        },
        {
            "buffer" : 0,
            "byteLength" : 1458,
            "byteOffset" : 84416
        }
    ],
    "buffers" : [
        {
            "byteLength" : 85876,
            "uri" : "data:application/octet-stream;base64,"
        }
    ]
}
