{
    "asset" : {
        "generator" : "Khronos glTF Blender I/O v1.7.33",
        "version" : "2.0"
    },
    "scene" : 0,
    "scenes" : [
        {
            "name" : "Scene",
            "nodes" : [
                0,
                1,
                2,
                3,
                4,
                5,
                6,
                7
            ]
        }
    ],
    "nodes" : [
        {
            "mesh" : 0,
            "name" : "Text.137",
            "rotation" : [
                0.7041096091270447,
                0.06503579765558243,
                -0.06503581255674362,
                0.7041096091270447
            ],
            "scale" : [
                0.3161202669143677,
                0.3161202669143677,
                0.3161202669143677
            ],
            "translation" : [
                -12.370121002197266,
                1.399999976158142,
                21.063777923583984
            ]
        },
        {
            "mesh" : 1,
            "name" : "Text.138",
            "rotation" : [
                0.7041096091270447,
                0.06503579765558243,
                -0.06503581255674362,
                0.7041096091270447
            ],
            "scale" : [
                0.3161202669143677,
                0.3161202669143677,
                0.3161202669143677
            ],
            "translation" : [
                -13.849870681762695,
                1.399999976158142,
                23.49260711669922
            ]
        },
        {
            "mesh" : 2,
            "name" : "Text.139",
            "rotation" : [
                0.7041096091270447,
                0.06503579765558243,
                -0.06503581255674362,
                0.7041096091270447
            ],
            "scale" : [
                0.3161202669143677,
                0.3161202669143677,
                0.3161202669143677
            ],
            "translation" : [
                -13.6355619430542,
                1.399999976158142,
                24.676406860351562
            ]
        },
        {
            "mesh" : 3,
            "name" : "Text.140",
            "rotation" : [
                0.7041096091270447,
                0.06503579765558243,
                -0.06503581255674362,
                0.7041096091270447
            ],
            "scale" : [
                0.3161202669143677,
                0.3161202669143677,
                0.3161202669143677
            ],
            "translation" : [
                -14.176435470581055,
                1.399999976158142,
                25.778564453125
            ]
        },
        {
            "mesh" : 4,
            "name" : "Text.141",
            "rotation" : [
                0.7041096091270447,
                0.06503579765558243,
                -0.06503581255674362,
                0.7041096091270447
            ],
            "scale" : [
                0.3161202669143677,
                0.3161202669143677,
                0.3161202669143677
            ],
            "translation" : [
                -14.288692474365234,
                1.399999976158142,
                26.4419002532959
            ]
        },
        {
            "mesh" : 5,
            "name" : "Text.142",
            "rotation" : [
                0.7041096091270447,
                0.06503579765558243,
                -0.06503581255674362,
                0.7041096091270447
            ],
            "scale" : [
                0.3161202669143677,
                0.3161202669143677,
                0.3161202669143677
            ],
            "translation" : [
                -14.564231872558594,
                1.399999976158142,
                27.20728874206543
            ]
        },
        {
            "mesh" : 6,
            "name" : "Text.143",
            "rotation" : [
                0.7041096091270447,
                0.06503579765558243,
                -0.06503581255674362,
                0.7041096091270447
            ],
            "scale" : [
                0.3161202669143677,
                0.3161202669143677,
                0.3161202669143677
            ],
            "translation" : [
                -15.350029945373535,
                1.399999976158142,
                29.054424285888672
            ]
        },
        {
            "mesh" : 7,
            "name" : "Text.144",
            "rotation" : [
                0.7041096091270447,
                0.06503579765558243,
                -0.06503581255674362,
                0.7041096091270447
            ],
            "scale" : [
                0.3161202669143677,
                0.3161202669143677,
                0.3161202669143677
            ],
            "translation" : [
                -17.391063690185547,
                1.399999976158142,
                30.74848175048828
            ]
        }
    ],
    "materials" : [
        {
            "doubleSided" : true,
            "name" : "Texto",
            "pbrMetallicRoughness" : {
                "baseColorFactor" : [
                    0.015420391224324703,
                    0.04187585785984993,
                    0.8000000715255737,
                    1
                ],
                "metallicFactor" : 0,
                "roughnessFactor" : 0.5
            }
        }
    ],
    "meshes" : [
        {
            "name" : "Text.133",
            "primitives" : [
                {
                    "attributes" : {
                        "POSITION" : 0,
                        "NORMAL" : 1,
                        "TEXCOORD_0" : 2
                    },
                    "indices" : 3,
                    "material" : 0
                }
            ]
        },
        {
            "name" : "Text.134",
            "primitives" : [
                {
                    "attributes" : {
                        "POSITION" : 4,
                        "NORMAL" : 5,
                        "TEXCOORD_0" : 6
                    },
                    "indices" : 7,
                    "material" : 0
                }
            ]
        },
        {
            "name" : "Text.135",
            "primitives" : [
                {
                    "attributes" : {
                        "POSITION" : 8,
                        "NORMAL" : 9,
                        "TEXCOORD_0" : 10
                    },
                    "indices" : 11,
                    "material" : 0
                }
            ]
        },
        {
            "name" : "Text.136",
            "primitives" : [
                {
                    "attributes" : {
                        "POSITION" : 12,
                        "NORMAL" : 13,
                        "TEXCOORD_0" : 14
                    },
                    "indices" : 15,
                    "material" : 0
                }
            ]
        },
        {
            "name" : "Text.137",
            "primitives" : [
                {
                    "attributes" : {
                        "POSITION" : 16,
                        "NORMAL" : 17,
                        "TEXCOORD_0" : 18
                    },
                    "indices" : 19,
                    "material" : 0
                }
            ]
        },
        {
            "name" : "Text.138",
            "primitives" : [
                {
                    "attributes" : {
                        "POSITION" : 20,
                        "NORMAL" : 21,
                        "TEXCOORD_0" : 22
                    },
                    "indices" : 23,
                    "material" : 0
                }
            ]
        },
        {
            "name" : "Text.139",
            "primitives" : [
                {
                    "attributes" : {
                        "POSITION" : 24,
                        "NORMAL" : 25,
                        "TEXCOORD_0" : 26
                    },
                    "indices" : 27,
                    "material" : 0
                }
            ]
        },
        {
            "name" : "Text.140",
            "primitives" : [
                {
                    "attributes" : {
                        "POSITION" : 28,
                        "NORMAL" : 29,
                        "TEXCOORD_0" : 30
                    },
                    "indices" : 31,
                    "material" : 0
                }
            ]
        }
    ],
    "accessors" : [
        {
            "bufferView" : 0,
            "componentType" : 5126,
            "count" : 224,
            "max" : [
                2.265000104904175,
                0,
                0.009000000543892384
            ],
            "min" : [
                0.07600000500679016,
                0,
                -0.6910000443458557
            ],
            "type" : "VEC3"
        },
        {
            "bufferView" : 1,
            "componentType" : 5126,
            "count" : 224,
            "type" : "VEC3"
        },
        {
            "bufferView" : 2,
            "componentType" : 5126,
            "count" : 224,
            "type" : "VEC2"
        },
        {
            "bufferView" : 3,
            "componentType" : 5123,
            "count" : 486,
            "type" : "SCALAR"
        },
        {
            "bufferView" : 4,
            "componentType" : 5126,
            "count" : 337,
            "max" : [
                2.430999994277954,
                0,
                0.009000000543892384
            ],
            "min" : [
                0.07600000500679016,
                0,
                -0.6910000443458557
            ],
            "type" : "VEC3"
        },
        {
            "bufferView" : 5,
            "componentType" : 5126,
            "count" : 337,
            "type" : "VEC3"
        },
        {
            "bufferView" : 6,
            "componentType" : 5126,
            "count" : 337,
            "type" : "VEC2"
        },
        {
            "bufferView" : 7,
            "componentType" : 5123,
            "count" : 741,
            "type" : "SCALAR"
        },
        {
            "bufferView" : 8,
            "componentType" : 5126,
            "count" : 427,
            "max" : [
                2.3889999389648438,
                0,
                0.009000000543892384
            ],
            "min" : [
                0.07600000500679016,
                0,
                -0.6910000443458557
            ],
            "type" : "VEC3"
        },
        {
            "bufferView" : 9,
            "componentType" : 5126,
            "count" : 427,
            "type" : "VEC3"
        },
        {
            "bufferView" : 10,
            "componentType" : 5126,
            "count" : 427,
            "type" : "VEC2"
        },
        {
            "bufferView" : 11,
            "componentType" : 5123,
            "count" : 915,
            "type" : "SCALAR"
        },
        {
            "bufferView" : 12,
            "componentType" : 5126,
            "count" : 238,
            "max" : [
                2.436000108718872,
                0,
                0.009000000543892384
            ],
            "min" : [
                0.07600000500679016,
                0,
                -0.6910000443458557
            ],
            "type" : "VEC3"
        },
        {
            "bufferView" : 13,
            "componentType" : 5126,
            "count" : 238,
            "type" : "VEC3"
        },
        {
            "bufferView" : 14,
            "componentType" : 5126,
            "count" : 238,
            "type" : "VEC2"
        },
        {
            "bufferView" : 15,
            "componentType" : 5123,
            "count" : 525,
            "type" : "SCALAR"
        },
        {
            "bufferView" : 16,
            "componentType" : 5126,
            "count" : 232,
            "max" : [
                2.569000005722046,
                0,
                0.009000000543892384
            ],
            "min" : [
                0.07600000500679016,
                0,
                -0.6910000443458557
            ],
            "type" : "VEC3"
        },
        {
            "bufferView" : 17,
            "componentType" : 5126,
            "count" : 232,
            "type" : "VEC3"
        },
        {
            "bufferView" : 18,
            "componentType" : 5126,
            "count" : 232,
            "type" : "VEC2"
        },
        {
            "bufferView" : 19,
            "componentType" : 5123,
            "count" : 501,
            "type" : "SCALAR"
        },
        {
            "bufferView" : 20,
            "componentType" : 5126,
            "count" : 321,
            "max" : [
                2.4030001163482666,
                0,
                0.009000000543892384
            ],
            "min" : [
                0.07600000500679016,
                0,
                -0.6910000443458557
            ],
            "type" : "VEC3"
        },
        {
            "bufferView" : 21,
            "componentType" : 5126,
            "count" : 321,
            "type" : "VEC3"
        },
        {
            "bufferView" : 22,
            "componentType" : 5126,
            "count" : 321,
            "type" : "VEC2"
        },
        {
            "bufferView" : 23,
            "componentType" : 5123,
            "count" : 708,
            "type" : "SCALAR"
        },
        {
            "bufferView" : 24,
            "componentType" : 5126,
            "count" : 226,
            "max" : [
                2.4549999237060547,
                0,
                0.009000000543892384
            ],
            "min" : [
                0.07600000500679016,
                0,
                -0.6910000443458557
            ],
            "type" : "VEC3"
        },
        {
            "bufferView" : 25,
            "componentType" : 5126,
            "count" : 226,
            "type" : "VEC3"
        },
        {
            "bufferView" : 26,
            "componentType" : 5126,
            "count" : 226,
            "type" : "VEC2"
        },
        {
            "bufferView" : 27,
            "componentType" : 5123,
            "count" : 492,
            "type" : "SCALAR"
        },
        {
            "bufferView" : 28,
            "componentType" : 5126,
            "count" : 479,
            "max" : [
                2.433000087738037,
                0,
                0.009000000543892384
            ],
            "min" : [
                0.07600000500679016,
                0,
                -0.6910000443458557
            ],
            "type" : "VEC3"
        },
        {
            "bufferView" : 29,
            "componentType" : 5126,
            "count" : 479,
            "type" : "VEC3"
        },
        {
            "bufferView" : 30,
            "componentType" : 5126,
            "count" : 479,
            "type" : "VEC2"
        },
        {
            "bufferView" : 31,
            "componentType" : 5123,
            "count" : 1062,
            "type" : "SCALAR"
        }
    ],
    "bufferViews" : [
        {
            "buffer" : 0,
            "byteLength" : 2688,
            "byteOffset" : 0
        },
        {
            "buffer" : 0,
            "byteLength" : 2688,
            "byteOffset" : 2688
        },
        {
            "buffer" : 0,
            "byteLength" : 1792,
            "byteOffset" : 5376
        },
        {
            "buffer" : 0,
            "byteLength" : 972,
            "byteOffset" : 7168
        },
        {
            "buffer" : 0,
            "byteLength" : 4044,
            "byteOffset" : 8140
        },
        {
            "buffer" : 0,
            "byteLength" : 4044,
            "byteOffset" : 12184
        },
        {
            "buffer" : 0,
            "byteLength" : 2696,
            "byteOffset" : 16228
        },
        {
            "buffer" : 0,
            "byteLength" : 1482,
            "byteOffset" : 18924
        },
        {
            "buffer" : 0,
            "byteLength" : 5124,
            "byteOffset" : 20408
        },
        {
            "buffer" : 0,
            "byteLength" : 5124,
            "byteOffset" : 25532
        },
        {
            "buffer" : 0,
            "byteLength" : 3416,
            "byteOffset" : 30656
        },
        {
            "buffer" : 0,
            "byteLength" : 1830,
            "byteOffset" : 34072
        },
        {
            "buffer" : 0,
            "byteLength" : 2856,
            "byteOffset" : 35904
        },
        {
            "buffer" : 0,
            "byteLength" : 2856,
            "byteOffset" : 38760
        },
        {
            "buffer" : 0,
            "byteLength" : 1904,
            "byteOffset" : 41616
        },
        {
            "buffer" : 0,
            "byteLength" : 1050,
            "byteOffset" : 43520
        },
        {
            "buffer" : 0,
            "byteLength" : 2784,
            "byteOffset" : 44572
        },
        {
            "buffer" : 0,
            "byteLength" : 2784,
            "byteOffset" : 47356
        },
        {
            "buffer" : 0,
            "byteLength" : 1856,
            "byteOffset" : 50140
        },
        {
            "buffer" : 0,
            "byteLength" : 1002,
            "byteOffset" : 51996
        },
        {
            "buffer" : 0,
            "byteLength" : 3852,
            "byteOffset" : 53000
        },
        {
            "buffer" : 0,
            "byteLength" : 3852,
            "byteOffset" : 56852
        },
        {
            "buffer" : 0,
            "byteLength" : 2568,
            "byteOffset" : 60704
        },
        {
            "buffer" : 0,
            "byteLength" : 1416,
            "byteOffset" : 63272
        },
        {
            "buffer" : 0,
            "byteLength" : 2712,
            "byteOffset" : 64688
        },
        {
            "buffer" : 0,
            "byteLength" : 2712,
            "byteOffset" : 67400
        },
        {
            "buffer" : 0,
            "byteLength" : 1808,
            "byteOffset" : 70112
        },
        {
            "buffer" : 0,
            "byteLength" : 984,
            "byteOffset" : 71920
        },
        {
            "buffer" : 0,
            "byteLength" : 5748,
            "byteOffset" : 72904
        },
        {
            "buffer" : 0,
            "byteLength" : 5748,
            "byteOffset" : 78652
        },
        {
            "buffer" : 0,
            "byteLength" : 3832,
            "byteOffset" : 84400
        },
        {
            "buffer" : 0,
            "byteLength" : 2124,
            "byteOffset" : 88232
        }
    ],
    "buffers" : [
        {
            "byteLength" : 90356,
            "uri" : "data:application/octet-stream;base64,"
        }
    ]
}
