{
    "asset" : {
        "generator" : "Khronos glTF Blender I/O v1.7.33",
        "version" : "2.0"
    },
    "scene" : 0,
    "scenes" : [
        {
            "name" : "Scene",
            "nodes" : [
                0,
                1,
                2,
                3,
                4,
                5,
                6,
                7
            ]
        }
    ],
    "nodes" : [
        {
            "mesh" : 0,
            "name" : "Text.082",
            "rotation" : [
                0.7071037292480469,
                -0.002089702757075429,
                0.002089702757075429,
                0.7071036696434021
            ],
            "scale" : [
                0.3161202669143677,
                0.3161202669143677,
                0.3161202669143677
            ],
            "translation" : [
                4.809781074523926,
                1.4135292768478394,
                -11.01821517944336
            ]
        },
        {
            "mesh" : 1,
            "name" : "Text.083",
            "rotation" : [
                0.7071037292480469,
                -0.002089702757075429,
                0.002089702757075429,
                0.7071036696434021
            ],
            "scale" : [
                0.3161202669143677,
                0.3161202669143677,
                0.3161202669143677
            ],
            "translation" : [
                6.422196388244629,
                1.4135292768478394,
                -13.161298751831055
            ]
        },
        {
            "mesh" : 2,
            "name" : "Text.087",
            "rotation" : [
                0.7071037292480469,
                -0.002089702757075429,
                0.002089702757075429,
                0.7071036696434021
            ],
            "scale" : [
                0.3161202669143677,
                0.3161202669143677,
                0.3161202669143677
            ],
            "translation" : [
                9.177589416503906,
                1.4135292768478394,
                -10.487546920776367
            ]
        },
        {
            "mesh" : 3,
            "name" : "Text.088",
            "rotation" : [
                0.7071037292480469,
                -0.002089702757075429,
                0.002089702757075429,
                0.7071036696434021
            ],
            "scale" : [
                0.3161202669143677,
                0.3161202669143677,
                0.3161202669143677
            ],
            "translation" : [
                7.483532905578613,
                1.4135292768478394,
                -10.456931114196777
            ]
        },
        {
            "mesh" : 4,
            "name" : "Text.094",
            "rotation" : [
                0.7071037292480469,
                -0.002089702757075429,
                0.002089702757075429,
                0.7071036696434021
            ],
            "scale" : [
                0.3161202669143677,
                0.3161202669143677,
                0.3161202669143677
            ],
            "translation" : [
                9.585795402526855,
                1.4135292768478394,
                -7.87502384185791
            ]
        },
        {
            "mesh" : 5,
            "name" : "Text.095",
            "rotation" : [
                0.7071037292480469,
                -0.002089702757075429,
                0.002089702757075429,
                0.7071036696434021
            ],
            "scale" : [
                0.3161202669143677,
                0.3161202669143677,
                0.3161202669143677
            ],
            "translation" : [
                13.269858360290527,
                1.4135292768478394,
                -6.864712715148926
            ]
        },
        {
            "mesh" : 6,
            "name" : "Text.097",
            "rotation" : [
                0.7071037292480469,
                -0.002089702757075429,
                0.002089702757075429,
                0.7071036696434021
            ],
            "scale" : [
                0.3161202669143677,
                0.3161202669143677,
                0.3161202669143677
            ],
            "translation" : [
                6.177272796630859,
                1.4135292768478394,
                -7.84440803527832
            ]
        },
        {
            "mesh" : 7,
            "name" : "Text.098",
            "rotation" : [
                0.7071037292480469,
                -0.002089702757075429,
                0.002089702757075429,
                0.7071036696434021
            ],
            "scale" : [
                0.3161202669143677,
                0.3161202669143677,
                0.3161202669143677
            ],
            "translation" : [
                3.4014692306518555,
                1.4135292768478394,
                -7.732151031494141
            ]
        }
    ],
    "materials" : [
        {
            "doubleSided" : true,
            "name" : "Texto",
            "pbrMetallicRoughness" : {
                "baseColorFactor" : [
                    0.015420391224324703,
                    0.04187585785984993,
                    0.8000000715255737,
                    1
                ],
                "metallicFactor" : 0,
                "roughnessFactor" : 0.5
            }
        }
    ],
    "meshes" : [
        {
            "name" : "Text.078",
            "primitives" : [
                {
                    "attributes" : {
                        "POSITION" : 0,
                        "NORMAL" : 1,
                        "TEXCOORD_0" : 2
                    },
                    "indices" : 3,
                    "material" : 0
                }
            ]
        },
        {
            "name" : "Text.079",
            "primitives" : [
                {
                    "attributes" : {
                        "POSITION" : 4,
                        "NORMAL" : 5,
                        "TEXCOORD_0" : 6
                    },
                    "indices" : 7,
                    "material" : 0
                }
            ]
        },
        {
            "name" : "Text.083",
            "primitives" : [
                {
                    "attributes" : {
                        "POSITION" : 8,
                        "NORMAL" : 9,
                        "TEXCOORD_0" : 10
                    },
                    "indices" : 11,
                    "material" : 0
                }
            ]
        },
        {
            "name" : "Text.084",
            "primitives" : [
                {
                    "attributes" : {
                        "POSITION" : 12,
                        "NORMAL" : 13,
                        "TEXCOORD_0" : 14
                    },
                    "indices" : 15,
                    "material" : 0
                }
            ]
        },
        {
            "name" : "Text.090",
            "primitives" : [
                {
                    "attributes" : {
                        "POSITION" : 16,
                        "NORMAL" : 17,
                        "TEXCOORD_0" : 18
                    },
                    "indices" : 19,
                    "material" : 0
                }
            ]
        },
        {
            "name" : "Text.091",
            "primitives" : [
                {
                    "attributes" : {
                        "POSITION" : 20,
                        "NORMAL" : 21,
                        "TEXCOORD_0" : 22
                    },
                    "indices" : 23,
                    "material" : 0
                }
            ]
        },
        {
            "name" : "Text.093",
            "primitives" : [
                {
                    "attributes" : {
                        "POSITION" : 24,
                        "NORMAL" : 25,
                        "TEXCOORD_0" : 26
                    },
                    "indices" : 27,
                    "material" : 0
                }
            ]
        },
        {
            "name" : "Text.094",
            "primitives" : [
                {
                    "attributes" : {
                        "POSITION" : 28,
                        "NORMAL" : 29,
                        "TEXCOORD_0" : 30
                    },
                    "indices" : 31,
                    "material" : 0
                }
            ]
        }
    ],
    "accessors" : [
        {
            "bufferView" : 0,
            "componentType" : 5126,
            "count" : 309,
            "max" : [
                2.9000000953674316,
                0,
                0.009000000543892384
            ],
            "min" : [
                0,
                0,
                -0.6910000443458557
            ],
            "type" : "VEC3"
        },
        {
            "bufferView" : 1,
            "componentType" : 5126,
            "count" : 309,
            "type" : "VEC3"
        },
        {
            "bufferView" : 2,
            "componentType" : 5126,
            "count" : 309,
            "type" : "VEC2"
        },
        {
            "bufferView" : 3,
            "componentType" : 5123,
            "count" : 669,
            "type" : "SCALAR"
        },
        {
            "bufferView" : 4,
            "componentType" : 5126,
            "count" : 127,
            "max" : [
                2.947000026702881,
                0,
                0
            ],
            "min" : [
                0,
                0,
                -0.6910000443458557
            ],
            "type" : "VEC3"
        },
        {
            "bufferView" : 5,
            "componentType" : 5126,
            "count" : 127,
            "type" : "VEC3"
        },
        {
            "bufferView" : 6,
            "componentType" : 5126,
            "count" : 127,
            "type" : "VEC2"
        },
        {
            "bufferView" : 7,
            "componentType" : 5123,
            "count" : 279,
            "type" : "SCALAR"
        },
        {
            "bufferView" : 8,
            "componentType" : 5126,
            "count" : 291,
            "max" : [
                2.940999984741211,
                0,
                0.009000000543892384
            ],
            "min" : [
                0,
                0,
                -0.6910000443458557
            ],
            "type" : "VEC3"
        },
        {
            "bufferView" : 9,
            "componentType" : 5126,
            "count" : 291,
            "type" : "VEC3"
        },
        {
            "bufferView" : 10,
            "componentType" : 5126,
            "count" : 291,
            "type" : "VEC2"
        },
        {
            "bufferView" : 11,
            "componentType" : 5123,
            "count" : 597,
            "type" : "SCALAR"
        },
        {
            "bufferView" : 12,
            "componentType" : 5126,
            "count" : 212,
            "max" : [
                2.9140000343322754,
                0,
                0.009000000543892384
            ],
            "min" : [
                0,
                0,
                -0.6860000491142273
            ],
            "type" : "VEC3"
        },
        {
            "bufferView" : 13,
            "componentType" : 5126,
            "count" : 212,
            "type" : "VEC3"
        },
        {
            "bufferView" : 14,
            "componentType" : 5126,
            "count" : 212,
            "type" : "VEC2"
        },
        {
            "bufferView" : 15,
            "componentType" : 5123,
            "count" : 462,
            "type" : "SCALAR"
        },
        {
            "bufferView" : 16,
            "componentType" : 5126,
            "count" : 120,
            "max" : [
                2.9660000801086426,
                0,
                0.009000000543892384
            ],
            "min" : [
                0,
                0,
                -0.6860000491142273
            ],
            "type" : "VEC3"
        },
        {
            "bufferView" : 17,
            "componentType" : 5126,
            "count" : 120,
            "type" : "VEC3"
        },
        {
            "bufferView" : 18,
            "componentType" : 5126,
            "count" : 120,
            "type" : "VEC2"
        },
        {
            "bufferView" : 19,
            "componentType" : 5123,
            "count" : 246,
            "type" : "SCALAR"
        },
        {
            "bufferView" : 20,
            "componentType" : 5126,
            "count" : 379,
            "max" : [
                2.944000005722046,
                0,
                0.009000000543892384
            ],
            "min" : [
                0,
                0,
                -0.6910000443458557
            ],
            "type" : "VEC3"
        },
        {
            "bufferView" : 21,
            "componentType" : 5126,
            "count" : 379,
            "type" : "VEC3"
        },
        {
            "bufferView" : 22,
            "componentType" : 5126,
            "count" : 379,
            "type" : "VEC2"
        },
        {
            "bufferView" : 23,
            "componentType" : 5123,
            "count" : 816,
            "type" : "SCALAR"
        },
        {
            "bufferView" : 24,
            "componentType" : 5126,
            "count" : 116,
            "max" : [
                2.7760000228881836,
                0,
                0
            ],
            "min" : [
                0,
                0,
                -0.6860000491142273
            ],
            "type" : "VEC3"
        },
        {
            "bufferView" : 25,
            "componentType" : 5126,
            "count" : 116,
            "type" : "VEC3"
        },
        {
            "bufferView" : 26,
            "componentType" : 5126,
            "count" : 116,
            "type" : "VEC2"
        },
        {
            "bufferView" : 27,
            "componentType" : 5123,
            "count" : 240,
            "type" : "SCALAR"
        },
        {
            "bufferView" : 28,
            "componentType" : 5126,
            "count" : 238,
            "max" : [
                2.942000150680542,
                0,
                0
            ],
            "min" : [
                0,
                0,
                -0.6910000443458557
            ],
            "type" : "VEC3"
        },
        {
            "bufferView" : 29,
            "componentType" : 5126,
            "count" : 238,
            "type" : "VEC3"
        },
        {
            "bufferView" : 30,
            "componentType" : 5126,
            "count" : 238,
            "type" : "VEC2"
        },
        {
            "bufferView" : 31,
            "componentType" : 5123,
            "count" : 495,
            "type" : "SCALAR"
        }
    ],
    "bufferViews" : [
        {
            "buffer" : 0,
            "byteLength" : 3708,
            "byteOffset" : 0
        },
        {
            "buffer" : 0,
            "byteLength" : 3708,
            "byteOffset" : 3708
        },
        {
            "buffer" : 0,
            "byteLength" : 2472,
            "byteOffset" : 7416
        },
        {
            "buffer" : 0,
            "byteLength" : 1338,
            "byteOffset" : 9888
        },
        {
            "buffer" : 0,
            "byteLength" : 1524,
            "byteOffset" : 11228
        },
        {
            "buffer" : 0,
            "byteLength" : 1524,
            "byteOffset" : 12752
        },
        {
            "buffer" : 0,
            "byteLength" : 1016,
            "byteOffset" : 14276
        },
        {
            "buffer" : 0,
            "byteLength" : 558,
            "byteOffset" : 15292
        },
        {
            "buffer" : 0,
            "byteLength" : 3492,
            "byteOffset" : 15852
        },
        {
            "buffer" : 0,
            "byteLength" : 3492,
            "byteOffset" : 19344
        },
        {
            "buffer" : 0,
            "byteLength" : 2328,
            "byteOffset" : 22836
        },
        {
            "buffer" : 0,
            "byteLength" : 1194,
            "byteOffset" : 25164
        },
        {
            "buffer" : 0,
            "byteLength" : 2544,
            "byteOffset" : 26360
        },
        {
            "buffer" : 0,
            "byteLength" : 2544,
            "byteOffset" : 28904
        },
        {
            "buffer" : 0,
            "byteLength" : 1696,
            "byteOffset" : 31448
        },
        {
            "buffer" : 0,
            "byteLength" : 924,
            "byteOffset" : 33144
        },
        {
            "buffer" : 0,
            "byteLength" : 1440,
            "byteOffset" : 34068
        },
        {
            "buffer" : 0,
            "byteLength" : 1440,
            "byteOffset" : 35508
        },
        {
            "buffer" : 0,
            "byteLength" : 960,
            "byteOffset" : 36948
        },
        {
            "buffer" : 0,
            "byteLength" : 492,
            "byteOffset" : 37908
        },
        {
            "buffer" : 0,
            "byteLength" : 4548,
            "byteOffset" : 38400
        },
        {
            "buffer" : 0,
            "byteLength" : 4548,
            "byteOffset" : 42948
        },
        {
            "buffer" : 0,
            "byteLength" : 3032,
            "byteOffset" : 47496
        },
        {
            "buffer" : 0,
            "byteLength" : 1632,
            "byteOffset" : 50528
        },
        {
            "buffer" : 0,
            "byteLength" : 1392,
            "byteOffset" : 52160
        },
        {
            "buffer" : 0,
            "byteLength" : 1392,
            "byteOffset" : 53552
        },
        {
            "buffer" : 0,
            "byteLength" : 928,
            "byteOffset" : 54944
        },
        {
            "buffer" : 0,
            "byteLength" : 480,
            "byteOffset" : 55872
        },
        {
            "buffer" : 0,
            "byteLength" : 2856,
            "byteOffset" : 56352
        },
        {
            "buffer" : 0,
            "byteLength" : 2856,
            "byteOffset" : 59208
        },
        {
            "buffer" : 0,
            "byteLength" : 1904,
            "byteOffset" : 62064
        },
        {
            "buffer" : 0,
            "byteLength" : 990,
            "byteOffset" : 63968
        }
    ],
    "buffers" : [
        {
            "byteLength" : 64960,
            "uri" : "data:application/octet-stream;base64,"
        }
    ]
}
