{
    "asset" : {
        "generator" : "Khronos glTF Blender I/O v1.7.33",
        "version" : "2.0"
    },
    "scene" : 0,
    "scenes" : [
        {
            "name" : "Scene",
            "nodes" : [
                0,
                1,
                2,
                3,
                4
            ]
        }
    ],
    "nodes" : [
        {
            "mesh" : 0,
            "name" : "Text.102",
            "rotation" : [
                0.7071037292480469,
                -0.002089702757075429,
                0.002089702757075429,
                0.7071036696434021
            ],
            "scale" : [
                0.3161202669143677,
                0.3161202669143677,
                0.3161202669143677
            ],
            "translation" : [
                22.95659637451172,
                1.4135292768478394,
                -13.00413703918457
            ]
        },
        {
            "mesh" : 1,
            "name" : "Text.103",
            "rotation" : [
                0.7071037292480469,
                -0.002089702757075429,
                0.002089702757075429,
                0.7071036696434021
            ],
            "scale" : [
                0.3161202669143677,
                0.3161202669143677,
                0.3161202669143677
            ],
            "translation" : [
                23.10354995727539,
                1.4135292768478394,
                -11.142715454101562
            ]
        },
        {
            "mesh" : 2,
            "name" : "Text.104",
            "rotation" : [
                0.7071037292480469,
                -0.002089702757075429,
                0.002089702757075429,
                0.7071036696434021
            ],
            "scale" : [
                0.3161202669143677,
                0.3161202669143677,
                0.3161202669143677
            ],
            "translation" : [
                24.781278610229492,
                1.4135292768478394,
                -12.024441719055176
            ]
        },
        {
            "mesh" : 3,
            "name" : "Text.105",
            "rotation" : [
                0.7071037292480469,
                -0.002089702757075429,
                0.002089702757075429,
                0.7071036696434021
            ],
            "scale" : [
                0.3161202669143677,
                0.3161202669143677,
                0.3161202669143677
            ],
            "translation" : [
                20.678804397583008,
                1.4135292768478394,
                -9.734403610229492
            ]
        },
        {
            "mesh" : 4,
            "name" : "Text.106",
            "rotation" : [
                0.7071037292480469,
                -0.002089702757075429,
                0.002089702757075429,
                0.7071036696434021
            ],
            "scale" : [
                0.3161202669143677,
                0.3161202669143677,
                0.3161202669143677
            ],
            "translation" : [
                24.695556640625,
                1.4135292768478394,
                -9.281294822692871
            ]
        }
    ],
    "materials" : [
        {
            "doubleSided" : true,
            "name" : "Texto",
            "pbrMetallicRoughness" : {
                "baseColorFactor" : [
                    0.015420391224324703,
                    0.04187585785984993,
                    0.8000000715255737,
                    1
                ],
                "metallicFactor" : 0,
                "roughnessFactor" : 0.5
            }
        }
    ],
    "meshes" : [
        {
            "name" : "Text.098",
            "primitives" : [
                {
                    "attributes" : {
                        "POSITION" : 0,
                        "NORMAL" : 1,
                        "TEXCOORD_0" : 2
                    },
                    "indices" : 3,
                    "material" : 0
                }
            ]
        },
        {
            "name" : "Text.099",
            "primitives" : [
                {
                    "attributes" : {
                        "POSITION" : 4,
                        "NORMAL" : 5,
                        "TEXCOORD_0" : 6
                    },
                    "indices" : 7,
                    "material" : 0
                }
            ]
        },
        {
            "name" : "Text.100",
            "primitives" : [
                {
                    "attributes" : {
                        "POSITION" : 8,
                        "NORMAL" : 9,
                        "TEXCOORD_0" : 10
                    },
                    "indices" : 11,
                    "material" : 0
                }
            ]
        },
        {
            "name" : "Text.101",
            "primitives" : [
                {
                    "attributes" : {
                        "POSITION" : 12,
                        "NORMAL" : 13,
                        "TEXCOORD_0" : 14
                    },
                    "indices" : 15,
                    "material" : 0
                }
            ]
        },
        {
            "name" : "Text.102",
            "primitives" : [
                {
                    "attributes" : {
                        "POSITION" : 16,
                        "NORMAL" : 17,
                        "TEXCOORD_0" : 18
                    },
                    "indices" : 19,
                    "material" : 0
                }
            ]
        }
    ],
    "accessors" : [
        {
            "bufferView" : 0,
            "componentType" : 5126,
            "count" : 285,
            "max" : [
                2.6089999675750732,
                0,
                0.009000000543892384
            ],
            "min" : [
                0.07500000298023224,
                0,
                -0.6910000443458557
            ],
            "type" : "VEC3"
        },
        {
            "bufferView" : 1,
            "componentType" : 5126,
            "count" : 285,
            "type" : "VEC3"
        },
        {
            "bufferView" : 2,
            "componentType" : 5126,
            "count" : 285,
            "type" : "VEC2"
        },
        {
            "bufferView" : 3,
            "componentType" : 5123,
            "count" : 612,
            "type" : "SCALAR"
        },
        {
            "bufferView" : 4,
            "componentType" : 5126,
            "count" : 484,
            "max" : [
                2.7330000400543213,
                0,
                0.009000000543892384
            ],
            "min" : [
                0.07500000298023224,
                0,
                -0.6910000443458557
            ],
            "type" : "VEC3"
        },
        {
            "bufferView" : 5,
            "componentType" : 5126,
            "count" : 484,
            "type" : "VEC3"
        },
        {
            "bufferView" : 6,
            "componentType" : 5126,
            "count" : 484,
            "type" : "VEC2"
        },
        {
            "bufferView" : 7,
            "componentType" : 5123,
            "count" : 1041,
            "type" : "SCALAR"
        },
        {
            "bufferView" : 8,
            "componentType" : 5126,
            "count" : 397,
            "max" : [
                2.7750000953674316,
                0,
                0.009000000543892384
            ],
            "min" : [
                0.07500000298023224,
                0,
                -0.6910000443458557
            ],
            "type" : "VEC3"
        },
        {
            "bufferView" : 9,
            "componentType" : 5126,
            "count" : 397,
            "type" : "VEC3"
        },
        {
            "bufferView" : 10,
            "componentType" : 5126,
            "count" : 397,
            "type" : "VEC2"
        },
        {
            "bufferView" : 11,
            "componentType" : 5123,
            "count" : 867,
            "type" : "SCALAR"
        },
        {
            "bufferView" : 12,
            "componentType" : 5126,
            "count" : 381,
            "max" : [
                2.746999979019165,
                0,
                0.009000000543892384
            ],
            "min" : [
                0.07500000298023224,
                0,
                -0.6910000443458557
            ],
            "type" : "VEC3"
        },
        {
            "bufferView" : 13,
            "componentType" : 5126,
            "count" : 381,
            "type" : "VEC3"
        },
        {
            "bufferView" : 14,
            "componentType" : 5126,
            "count" : 381,
            "type" : "VEC2"
        },
        {
            "bufferView" : 15,
            "componentType" : 5123,
            "count" : 834,
            "type" : "SCALAR"
        },
        {
            "bufferView" : 16,
            "componentType" : 5126,
            "count" : 296,
            "max" : [
                2.7799999713897705,
                0,
                0.009000000543892384
            ],
            "min" : [
                0.07500000298023224,
                0,
                -0.6910000443458557
            ],
            "type" : "VEC3"
        },
        {
            "bufferView" : 17,
            "componentType" : 5126,
            "count" : 296,
            "type" : "VEC3"
        },
        {
            "bufferView" : 18,
            "componentType" : 5126,
            "count" : 296,
            "type" : "VEC2"
        },
        {
            "bufferView" : 19,
            "componentType" : 5123,
            "count" : 651,
            "type" : "SCALAR"
        }
    ],
    "bufferViews" : [
        {
            "buffer" : 0,
            "byteLength" : 3420,
            "byteOffset" : 0
        },
        {
            "buffer" : 0,
            "byteLength" : 3420,
            "byteOffset" : 3420
        },
        {
            "buffer" : 0,
            "byteLength" : 2280,
            "byteOffset" : 6840
        },
        {
            "buffer" : 0,
            "byteLength" : 1224,
            "byteOffset" : 9120
        },
        {
            "buffer" : 0,
            "byteLength" : 5808,
            "byteOffset" : 10344
        },
        {
            "buffer" : 0,
            "byteLength" : 5808,
            "byteOffset" : 16152
        },
        {
            "buffer" : 0,
            "byteLength" : 3872,
            "byteOffset" : 21960
        },
        {
            "buffer" : 0,
            "byteLength" : 2082,
            "byteOffset" : 25832
        },
        {
            "buffer" : 0,
            "byteLength" : 4764,
            "byteOffset" : 27916
        },
        {
            "buffer" : 0,
            "byteLength" : 4764,
            "byteOffset" : 32680
        },
        {
            "buffer" : 0,
            "byteLength" : 3176,
            "byteOffset" : 37444
        },
        {
            "buffer" : 0,
            "byteLength" : 1734,
            "byteOffset" : 40620
        },
        {
            "buffer" : 0,
            "byteLength" : 4572,
            "byteOffset" : 42356
        },
        {
            "buffer" : 0,
            "byteLength" : 4572,
            "byteOffset" : 46928
        },
        {
            "buffer" : 0,
            "byteLength" : 3048,
            "byteOffset" : 51500
        },
        {
            "buffer" : 0,
            "byteLength" : 1668,
            "byteOffset" : 54548
        },
        {
            "buffer" : 0,
            "byteLength" : 3552,
            "byteOffset" : 56216
        },
        {
            "buffer" : 0,
            "byteLength" : 3552,
            "byteOffset" : 59768
        },
        {
            "buffer" : 0,
            "byteLength" : 2368,
            "byteOffset" : 63320
        },
        {
            "buffer" : 0,
            "byteLength" : 1302,
            "byteOffset" : 65688
        }
    ],
    "buffers" : [
        {
            "byteLength" : 66992,
            "uri" : "data:application/octet-stream;base64,"
        }
    ]
}
