{
    "asset" : {
        "generator" : "Khronos glTF Blender I/O v1.7.33",
        "version" : "2.0"
    },
    "scene" : 0,
    "scenes" : [
        {
            "name" : "Scene",
            "nodes" : [
                0,
                1
            ]
        }
    ],
    "nodes" : [
        {
            "mesh" : 0,
            "name" : "Text.126",
            "rotation" : [
                0.7071037292480469,
                -0.002089702757075429,
                0.002089702757075429,
                0.7071036696434021
            ],
            "scale" : [
                0.3161202669143677,
                0.3161202669143677,
                0.3161202669143677
            ],
            "translation" : [
                3.320145606994629,
                1.399999976158142,
                -0.6610192060470581
            ]
        },
        {
            "mesh" : 1,
            "name" : "Text.127",
            "rotation" : [
                0.7071037292480469,
                -0.002089702757075429,
                0.002089702757075429,
                0.7071036696434021
            ],
            "scale" : [
                0.3161202669143677,
                0.3161202669143677,
                0.3161202669143677
            ],
            "translation" : [
                5.70815372467041,
                1.399999976158142,
                0.8697551488876343
            ]
        }
    ],
    "materials" : [
        {
            "doubleSided" : true,
            "name" : "Texto",
            "pbrMetallicRoughness" : {
                "baseColorFactor" : [
                    0.015420391224324703,
                    0.04187585785984993,
                    0.8000000715255737,
                    1
                ],
                "metallicFactor" : 0,
                "roughnessFactor" : 0.5
            }
        }
    ],
    "meshes" : [
        {
            "name" : "Text.122",
            "primitives" : [
                {
                    "attributes" : {
                        "POSITION" : 0,
                        "NORMAL" : 1,
                        "TEXCOORD_0" : 2
                    },
                    "indices" : 3,
                    "material" : 0
                }
            ]
        },
        {
            "name" : "Text.123",
            "primitives" : [
                {
                    "attributes" : {
                        "POSITION" : 4,
                        "NORMAL" : 5,
                        "TEXCOORD_0" : 6
                    },
                    "indices" : 3,
                    "material" : 0
                }
            ]
        }
    ],
    "accessors" : [
        {
            "bufferView" : 0,
            "componentType" : 5126,
            "count" : 285,
            "max" : [
                2.2139999866485596,
                0,
                0.009000000543892384
            ],
            "min" : [
                0.07500000298023224,
                0,
                -0.6910000443458557
            ],
            "type" : "VEC3"
        },
        {
            "bufferView" : 1,
            "componentType" : 5126,
            "count" : 285,
            "type" : "VEC3"
        },
        {
            "bufferView" : 2,
            "componentType" : 5126,
            "count" : 285,
            "type" : "VEC2"
        },
        {
            "bufferView" : 3,
            "componentType" : 5123,
            "count" : 624,
            "type" : "SCALAR"
        },
        {
            "bufferView" : 4,
            "componentType" : 5126,
            "count" : 285,
            "max" : [
                2.2139999866485596,
                0,
                0.009000000543892384
            ],
            "min" : [
                0.07500000298023224,
                0,
                -0.6910000443458557
            ],
            "type" : "VEC3"
        },
        {
            "bufferView" : 5,
            "componentType" : 5126,
            "count" : 285,
            "type" : "VEC3"
        },
        {
            "bufferView" : 6,
            "componentType" : 5126,
            "count" : 285,
            "type" : "VEC2"
        }
    ],
    "bufferViews" : [
        {
            "buffer" : 0,
            "byteLength" : 3420,
            "byteOffset" : 0
        },
        {
            "buffer" : 0,
            "byteLength" : 3420,
            "byteOffset" : 3420
        },
        {
            "buffer" : 0,
            "byteLength" : 2280,
            "byteOffset" : 6840
        },
        {
            "buffer" : 0,
            "byteLength" : 1248,
            "byteOffset" : 9120
        },
        {
            "buffer" : 0,
            "byteLength" : 3420,
            "byteOffset" : 10368
        },
        {
            "buffer" : 0,
            "byteLength" : 3420,
            "byteOffset" : 13788
        },
        {
            "buffer" : 0,
            "byteLength" : 2280,
            "byteOffset" : 17208
        }
    ],
    "buffers" : [
        {
            "byteLength" : 19488,
            "uri" : "data:application/octet-stream;base64,"
        }
    ]
}
