{
    "asset" : {
        "generator" : "Khronos glTF Blender I/O v1.7.33",
        "version" : "2.0"
    },
    "scene" : 0,
    "scenes" : [
        {
            "name" : "Scene",
            "nodes" : [
                0,
                1,
                2,
                3,
                4,
                5,
                6,
                7,
                8,
                9
            ]
        }
    ],
    "nodes" : [
        {
            "mesh" : 0,
            "name" : "Text.085",
            "rotation" : [
                0.7071037292480469,
                -0.002089702757075429,
                0.002089702757075429,
                0.7071036696434021
            ],
            "scale" : [
                0.3161202669143677,
                0.3161202669143677,
                0.3161202669143677
            ],
            "translation" : [
                9.289846420288086,
                1.4135292768478394,
                -15.09007453918457
            ]
        },
        {
            "mesh" : 1,
            "name" : "Text.086",
            "rotation" : [
                0.7071037292480469,
                -0.002089702757075429,
                0.002089702757075429,
                0.7071036696434021
            ],
            "scale" : [
                0.3161202669143677,
                0.3161202669143677,
                0.3161202669143677
            ],
            "translation" : [
                9.208205223083496,
                1.4135292768478394,
                -13.53888988494873
            ]
        },
        {
            "mesh" : 2,
            "name" : "Text.089",
            "rotation" : [
                0.7071037292480469,
                -0.002089702757075429,
                0.002089702757075429,
                0.7071036696434021
            ],
            "scale" : [
                0.3161202669143677,
                0.3161202669143677,
                0.3161202669143677
            ],
            "translation" : [
                12.728984832763672,
                1.4135292768478394,
                -13.079657554626465
            ]
        },
        {
            "mesh" : 3,
            "name" : "Text.090",
            "rotation" : [
                0.7071037292480469,
                -0.002089702757075429,
                0.002089702757075429,
                0.7071036696434021
            ],
            "scale" : [
                0.3161202669143677,
                0.3161202669143677,
                0.3161202669143677
            ],
            "translation" : [
                11.851341247558594,
                1.4135292768478394,
                -11.15088176727295
            ]
        },
        {
            "mesh" : 4,
            "name" : "Text.091",
            "rotation" : [
                0.7071037292480469,
                -0.002089702757075429,
                0.002089702757075429,
                0.7071036696434021
            ],
            "scale" : [
                0.3161202669143677,
                0.3161202669143677,
                0.3161202669143677
            ],
            "translation" : [
                14.137296676635742,
                1.4135292768478394,
                -11.12026596069336
            ]
        },
        {
            "mesh" : 5,
            "name" : "Text.092",
            "rotation" : [
                0.7071037292480469,
                -0.002089702757075429,
                0.002089702757075429,
                0.7071036696434021
            ],
            "scale" : [
                0.3161202669143677,
                0.3161202669143677,
                0.3161202669143677
            ],
            "translation" : [
                11.208415985107422,
                1.4135292768478394,
                -9.742568969726562
            ]
        },
        {
            "mesh" : 6,
            "name" : "Text.093",
            "rotation" : [
                0.7071037292480469,
                -0.002089702757075429,
                0.002089702757075429,
                0.7071036696434021
            ],
            "scale" : [
                0.3161202669143677,
                0.3161202669143677,
                0.3161202669143677
            ],
            "translation" : [
                13.596423149108887,
                1.4135292768478394,
                -9.242515563964844
            ]
        },
        {
            "mesh" : 7,
            "name" : "Text.096",
            "rotation" : [
                0.7071037292480469,
                -0.002089702757075429,
                0.002089702757075429,
                0.7071036696434021
            ],
            "scale" : [
                0.3161202669143677,
                0.3161202669143677,
                0.3161202669143677
            ],
            "translation" : [
                15.535404205322266,
                1.4135292768478394,
                -6.660609245300293
            ]
        },
        {
            "mesh" : 8,
            "name" : "Text.099",
            "rotation" : [
                0.7071037292480469,
                -0.002089702757075429,
                0.002089702757075429,
                0.7071036696434021
            ],
            "scale" : [
                0.3161202669143677,
                0.3161202669143677,
                0.3161202669143677
            ],
            "translation" : [
                18.143842697143555,
                1.4135292768478394,
                -8.301599502563477
            ]
        },
        {
            "mesh" : 9,
            "name" : "Text.100",
            "rotation" : [
                0.7071037292480469,
                -0.002089702757075429,
                0.002089702757075429,
                0.7071036696434021
            ],
            "scale" : [
                0.3161202669143677,
                0.3161202669143677,
                0.3161202669143677
            ],
            "translation" : [
                17.996889114379883,
                1.4135292768478394,
                -11.265178680419922
            ]
        }
    ],
    "materials" : [
        {
            "doubleSided" : true,
            "name" : "Texto",
            "pbrMetallicRoughness" : {
                "baseColorFactor" : [
                    0.015420391224324703,
                    0.04187585785984993,
                    0.8000000715255737,
                    1
                ],
                "metallicFactor" : 0,
                "roughnessFactor" : 0.5
            }
        }
    ],
    "meshes" : [
        {
            "name" : "Text.081",
            "primitives" : [
                {
                    "attributes" : {
                        "POSITION" : 0,
                        "NORMAL" : 1,
                        "TEXCOORD_0" : 2
                    },
                    "indices" : 3,
                    "material" : 0
                }
            ]
        },
        {
            "name" : "Text.082",
            "primitives" : [
                {
                    "attributes" : {
                        "POSITION" : 4,
                        "NORMAL" : 5,
                        "TEXCOORD_0" : 6
                    },
                    "indices" : 7,
                    "material" : 0
                }
            ]
        },
        {
            "name" : "Text.085",
            "primitives" : [
                {
                    "attributes" : {
                        "POSITION" : 8,
                        "NORMAL" : 9,
                        "TEXCOORD_0" : 10
                    },
                    "indices" : 11,
                    "material" : 0
                }
            ]
        },
        {
            "name" : "Text.086",
            "primitives" : [
                {
                    "attributes" : {
                        "POSITION" : 12,
                        "NORMAL" : 13,
                        "TEXCOORD_0" : 14
                    },
                    "indices" : 15,
                    "material" : 0
                }
            ]
        },
        {
            "name" : "Text.087",
            "primitives" : [
                {
                    "attributes" : {
                        "POSITION" : 16,
                        "NORMAL" : 17,
                        "TEXCOORD_0" : 18
                    },
                    "indices" : 19,
                    "material" : 0
                }
            ]
        },
        {
            "name" : "Text.088",
            "primitives" : [
                {
                    "attributes" : {
                        "POSITION" : 20,
                        "NORMAL" : 21,
                        "TEXCOORD_0" : 22
                    },
                    "indices" : 23,
                    "material" : 0
                }
            ]
        },
        {
            "name" : "Text.089",
            "primitives" : [
                {
                    "attributes" : {
                        "POSITION" : 24,
                        "NORMAL" : 25,
                        "TEXCOORD_0" : 26
                    },
                    "indices" : 27,
                    "material" : 0
                }
            ]
        },
        {
            "name" : "Text.092",
            "primitives" : [
                {
                    "attributes" : {
                        "POSITION" : 28,
                        "NORMAL" : 29,
                        "TEXCOORD_0" : 30
                    },
                    "indices" : 31,
                    "material" : 0
                }
            ]
        },
        {
            "name" : "Text.095",
            "primitives" : [
                {
                    "attributes" : {
                        "POSITION" : 32,
                        "NORMAL" : 33,
                        "TEXCOORD_0" : 34
                    },
                    "indices" : 35,
                    "material" : 0
                }
            ]
        },
        {
            "name" : "Text.096",
            "primitives" : [
                {
                    "attributes" : {
                        "POSITION" : 36,
                        "NORMAL" : 37,
                        "TEXCOORD_0" : 38
                    },
                    "indices" : 39,
                    "material" : 0
                }
            ]
        }
    ],
    "accessors" : [
        {
            "bufferView" : 0,
            "componentType" : 5126,
            "count" : 225,
            "max" : [
                2.432000160217285,
                0,
                0
            ],
            "min" : [
                0.07600000500679016,
                0,
                -0.6820000410079956
            ],
            "type" : "VEC3"
        },
        {
            "bufferView" : 1,
            "componentType" : 5126,
            "count" : 225,
            "type" : "VEC3"
        },
        {
            "bufferView" : 2,
            "componentType" : 5126,
            "count" : 225,
            "type" : "VEC2"
        },
        {
            "bufferView" : 3,
            "componentType" : 5123,
            "count" : 480,
            "type" : "SCALAR"
        },
        {
            "bufferView" : 4,
            "componentType" : 5126,
            "count" : 347,
            "max" : [
                2.5980002880096436,
                0,
                0
            ],
            "min" : [
                0.07600000500679016,
                0,
                -0.6910000443458557
            ],
            "type" : "VEC3"
        },
        {
            "bufferView" : 5,
            "componentType" : 5126,
            "count" : 347,
            "type" : "VEC3"
        },
        {
            "bufferView" : 6,
            "componentType" : 5126,
            "count" : 347,
            "type" : "VEC2"
        },
        {
            "bufferView" : 7,
            "componentType" : 5123,
            "count" : 735,
            "type" : "SCALAR"
        },
        {
            "bufferView" : 8,
            "componentType" : 5126,
            "count" : 418,
            "max" : [
                2.556000232696533,
                0,
                0.009000000543892384
            ],
            "min" : [
                0.07600000500679016,
                0,
                -0.6910000443458557
            ],
            "type" : "VEC3"
        },
        {
            "bufferView" : 9,
            "componentType" : 5126,
            "count" : 418,
            "type" : "VEC3"
        },
        {
            "bufferView" : 10,
            "componentType" : 5126,
            "count" : 418,
            "type" : "VEC2"
        },
        {
            "bufferView" : 11,
            "componentType" : 5123,
            "count" : 909,
            "type" : "SCALAR"
        },
        {
            "bufferView" : 12,
            "componentType" : 5126,
            "count" : 321,
            "max" : [
                2.570000171661377,
                0,
                0.009000000543892384
            ],
            "min" : [
                0.07600000500679016,
                0,
                -0.6820000410079956
            ],
            "type" : "VEC3"
        },
        {
            "bufferView" : 13,
            "componentType" : 5126,
            "count" : 321,
            "type" : "VEC3"
        },
        {
            "bufferView" : 14,
            "componentType" : 5126,
            "count" : 321,
            "type" : "VEC2"
        },
        {
            "bufferView" : 15,
            "componentType" : 5123,
            "count" : 702,
            "type" : "SCALAR"
        },
        {
            "bufferView" : 16,
            "componentType" : 5126,
            "count" : 236,
            "max" : [
                2.6030001640319824,
                0,
                0
            ],
            "min" : [
                0.07600000500679016,
                0,
                -0.6910000443458557
            ],
            "type" : "VEC3"
        },
        {
            "bufferView" : 17,
            "componentType" : 5126,
            "count" : 236,
            "type" : "VEC3"
        },
        {
            "bufferView" : 18,
            "componentType" : 5126,
            "count" : 236,
            "type" : "VEC2"
        },
        {
            "bufferView" : 19,
            "componentType" : 5123,
            "count" : 519,
            "type" : "SCALAR"
        },
        {
            "bufferView" : 20,
            "componentType" : 5126,
            "count" : 400,
            "max" : [
                2.5970001220703125,
                0,
                0.009000000543892384
            ],
            "min" : [
                0.07600000500679016,
                0,
                -0.6910000443458557
            ],
            "type" : "VEC3"
        },
        {
            "bufferView" : 21,
            "componentType" : 5126,
            "count" : 400,
            "type" : "VEC3"
        },
        {
            "bufferView" : 22,
            "componentType" : 5126,
            "count" : 400,
            "type" : "VEC2"
        },
        {
            "bufferView" : 23,
            "componentType" : 5123,
            "count" : 837,
            "type" : "SCALAR"
        },
        {
            "bufferView" : 24,
            "componentType" : 5126,
            "count" : 229,
            "max" : [
                2.622000217437744,
                0,
                0.009000000543892384
            ],
            "min" : [
                0.07600000500679016,
                0,
                -0.6820000410079956
            ],
            "type" : "VEC3"
        },
        {
            "bufferView" : 25,
            "componentType" : 5126,
            "count" : 229,
            "type" : "VEC3"
        },
        {
            "bufferView" : 26,
            "componentType" : 5126,
            "count" : 229,
            "type" : "VEC2"
        },
        {
            "bufferView" : 27,
            "componentType" : 5123,
            "count" : 486,
            "type" : "SCALAR"
        },
        {
            "bufferView" : 28,
            "componentType" : 5126,
            "count" : 348,
            "max" : [
                3.1020002365112305,
                0,
                0.009000000543892384
            ],
            "min" : [
                0.07600000500679016,
                0,
                -0.6910000443458557
            ],
            "type" : "VEC3"
        },
        {
            "bufferView" : 29,
            "componentType" : 5126,
            "count" : 348,
            "type" : "VEC3"
        },
        {
            "bufferView" : 30,
            "componentType" : 5126,
            "count" : 348,
            "type" : "VEC2"
        },
        {
            "bufferView" : 31,
            "componentType" : 5123,
            "count" : 768,
            "type" : "SCALAR"
        },
        {
            "bufferView" : 32,
            "componentType" : 5126,
            "count" : 399,
            "max" : [
                2.5930001735687256,
                0,
                0.009000000543892384
            ],
            "min" : [
                0.07600000500679016,
                0,
                -0.6910000443458557
            ],
            "type" : "VEC3"
        },
        {
            "bufferView" : 33,
            "componentType" : 5126,
            "count" : 399,
            "type" : "VEC3"
        },
        {
            "bufferView" : 34,
            "componentType" : 5126,
            "count" : 399,
            "type" : "VEC2"
        },
        {
            "bufferView" : 35,
            "componentType" : 5123,
            "count" : 873,
            "type" : "SCALAR"
        },
        {
            "bufferView" : 36,
            "componentType" : 5126,
            "count" : 488,
            "max" : [
                2.6000001430511475,
                0,
                0.009000000543892384
            ],
            "min" : [
                0.07600000500679016,
                0,
                -0.6910000443458557
            ],
            "type" : "VEC3"
        },
        {
            "bufferView" : 37,
            "componentType" : 5126,
            "count" : 488,
            "type" : "VEC3"
        },
        {
            "bufferView" : 38,
            "componentType" : 5126,
            "count" : 488,
            "type" : "VEC2"
        },
        {
            "bufferView" : 39,
            "componentType" : 5123,
            "count" : 1056,
            "type" : "SCALAR"
        }
    ],
    "bufferViews" : [
        {
            "buffer" : 0,
            "byteLength" : 2700,
            "byteOffset" : 0
        },
        {
            "buffer" : 0,
            "byteLength" : 2700,
            "byteOffset" : 2700
        },
        {
            "buffer" : 0,
            "byteLength" : 1800,
            "byteOffset" : 5400
        },
        {
            "buffer" : 0,
            "byteLength" : 960,
            "byteOffset" : 7200
        },
        {
            "buffer" : 0,
            "byteLength" : 4164,
            "byteOffset" : 8160
        },
        {
            "buffer" : 0,
            "byteLength" : 4164,
            "byteOffset" : 12324
        },
        {
            "buffer" : 0,
            "byteLength" : 2776,
            "byteOffset" : 16488
        },
        {
            "buffer" : 0,
            "byteLength" : 1470,
            "byteOffset" : 19264
        },
        {
            "buffer" : 0,
            "byteLength" : 5016,
            "byteOffset" : 20736
        },
        {
            "buffer" : 0,
            "byteLength" : 5016,
            "byteOffset" : 25752
        },
        {
            "buffer" : 0,
            "byteLength" : 3344,
            "byteOffset" : 30768
        },
        {
            "buffer" : 0,
            "byteLength" : 1818,
            "byteOffset" : 34112
        },
        {
            "buffer" : 0,
            "byteLength" : 3852,
            "byteOffset" : 35932
        },
        {
            "buffer" : 0,
            "byteLength" : 3852,
            "byteOffset" : 39784
        },
        {
            "buffer" : 0,
            "byteLength" : 2568,
            "byteOffset" : 43636
        },
        {
            "buffer" : 0,
            "byteLength" : 1404,
            "byteOffset" : 46204
        },
        {
            "buffer" : 0,
            "byteLength" : 2832,
            "byteOffset" : 47608
        },
        {
            "buffer" : 0,
            "byteLength" : 2832,
            "byteOffset" : 50440
        },
        {
            "buffer" : 0,
            "byteLength" : 1888,
            "byteOffset" : 53272
        },
        {
            "buffer" : 0,
            "byteLength" : 1038,
            "byteOffset" : 55160
        },
        {
            "buffer" : 0,
            "byteLength" : 4800,
            "byteOffset" : 56200
        },
        {
            "buffer" : 0,
            "byteLength" : 4800,
            "byteOffset" : 61000
        },
        {
            "buffer" : 0,
            "byteLength" : 3200,
            "byteOffset" : 65800
        },
        {
            "buffer" : 0,
            "byteLength" : 1674,
            "byteOffset" : 69000
        },
        {
            "buffer" : 0,
            "byteLength" : 2748,
            "byteOffset" : 70676
        },
        {
            "buffer" : 0,
            "byteLength" : 2748,
            "byteOffset" : 73424
        },
        {
            "buffer" : 0,
            "byteLength" : 1832,
            "byteOffset" : 76172
        },
        {
            "buffer" : 0,
            "byteLength" : 972,
            "byteOffset" : 78004
        },
        {
            "buffer" : 0,
            "byteLength" : 4176,
            "byteOffset" : 78976
        },
        {
            "buffer" : 0,
            "byteLength" : 4176,
            "byteOffset" : 83152
        },
        {
            "buffer" : 0,
            "byteLength" : 2784,
            "byteOffset" : 87328
        },
        {
            "buffer" : 0,
            "byteLength" : 1536,
            "byteOffset" : 90112
        },
        {
            "buffer" : 0,
            "byteLength" : 4788,
            "byteOffset" : 91648
        },
        {
            "buffer" : 0,
            "byteLength" : 4788,
            "byteOffset" : 96436
        },
        {
            "buffer" : 0,
            "byteLength" : 3192,
            "byteOffset" : 101224
        },
        {
            "buffer" : 0,
            "byteLength" : 1746,
            "byteOffset" : 104416
        },
        {
            "buffer" : 0,
            "byteLength" : 5856,
            "byteOffset" : 106164
        },
        {
            "buffer" : 0,
            "byteLength" : 5856,
            "byteOffset" : 112020
        },
        {
            "buffer" : 0,
            "byteLength" : 3904,
            "byteOffset" : 117876
        },
        {
            "buffer" : 0,
            "byteLength" : 2112,
            "byteOffset" : 121780
        }
    ],
    "buffers" : [
        {
            "byteLength" : 123892,
            "uri" : "data:application/octet-stream;base64,"
        }
    ]
}
