{
    "asset" : {
        "generator" : "Khronos glTF Blender I/O v1.7.33",
        "version" : "2.0"
    },
    "scene" : 0,
    "scenes" : [
        {
            "name" : "Scene",
            "nodes" : [
                0,
                1,
                2,
                3,
                4,
                5,
                6,
                7
            ]
        }
    ],
    "nodes" : [
        {
            "mesh" : 0,
            "name" : "Text.019",
            "rotation" : [
                0.7071037292480469,
                -0.002089702757075429,
                0.002089702757075429,
                0.7071036696434021
            ],
            "scale" : [
                0.3161202669143677,
                0.3161202669143677,
                0.3161202669143677
            ],
            "translation" : [
                -24.56862449645996,
                1.0664570331573486,
                -10.48183822631836
            ]
        },
        {
            "mesh" : 1,
            "name" : "Text.020",
            "rotation" : [
                0.7071037292480469,
                -0.002089702757075429,
                0.002089702757075429,
                0.7071036696434021
            ],
            "scale" : [
                0.3161202669143677,
                0.3161202669143677,
                0.3161202669143677
            ],
            "translation" : [
                -21.113758087158203,
                1.0664570331573486,
                -10.251513481140137
            ]
        },
        {
            "mesh" : 2,
            "name" : "Text.021",
            "rotation" : [
                0.7071037292480469,
                -0.002089702757075429,
                0.002089702757075429,
                0.7071036696434021
            ],
            "scale" : [
                0.3161202669143677,
                0.3161202669143677,
                0.3161202669143677
            ],
            "translation" : [
                -25.969017028808594,
                1.0664570331573486,
                -8.789322853088379
            ]
        },
        {
            "mesh" : 3,
            "name" : "Text.022",
            "rotation" : [
                0.7071037292480469,
                -0.002089702757075429,
                0.002089702757075429,
                0.7071036696434021
            ],
            "scale" : [
                0.3161202669143677,
                0.3161202669143677,
                0.3161202669143677
            ],
            "translation" : [
                -23.86856460571289,
                1.0664570331573486,
                -8.001357078552246
            ]
        },
        {
            "mesh" : 4,
            "name" : "Text.024",
            "rotation" : [
                0.7071037292480469,
                -0.002089702757075429,
                0.002089702757075429,
                0.7071036696434021
            ],
            "scale" : [
                0.3161202669143677,
                0.3161202669143677,
                0.3161202669143677
            ],
            "translation" : [
                -21.754302978515625,
                1.0664570331573486,
                -12.655094146728516
            ]
        },
        {
            "mesh" : 5,
            "name" : "Text.025",
            "rotation" : [
                0.7071037292480469,
                -0.002089702757075429,
                0.002089702757075429,
                0.7071036696434021
            ],
            "scale" : [
                0.3161202669143677,
                0.3161202669143677,
                0.3161202669143677
            ],
            "translation" : [
                -20.716693878173828,
                1.0664570331573486,
                -14.894360542297363
            ]
        },
        {
            "mesh" : 6,
            "name" : "Text.026",
            "rotation" : [
                0.7071037292480469,
                -0.002089702757075429,
                0.002089702757075429,
                0.7071036696434021
            ],
            "scale" : [
                0.3161202669143677,
                0.3161202669143677,
                0.3161202669143677
            ],
            "translation" : [
                -21.979869842529297,
                1.0664570331573486,
                -14.894360542297363
            ]
        },
        {
            "mesh" : 7,
            "name" : "Text.027",
            "rotation" : [
                0.7071037292480469,
                -0.002089702757075429,
                0.002089702757075429,
                0.7071036696434021
            ],
            "scale" : [
                0.3161202669143677,
                0.3161202669143677,
                0.3161202669143677
            ],
            "translation" : [
                -21.643569946289062,
                1.0664570331573486,
                -15.632579803466797
            ]
        }
    ],
    "materials" : [
        {
            "doubleSided" : true,
            "name" : "Texto",
            "pbrMetallicRoughness" : {
                "baseColorFactor" : [
                    0.015420391224324703,
                    0.04187585785984993,
                    0.8000000715255737,
                    1
                ],
                "metallicFactor" : 0,
                "roughnessFactor" : 0.5
            }
        }
    ],
    "meshes" : [
        {
            "name" : "Text.014",
            "primitives" : [
                {
                    "attributes" : {
                        "POSITION" : 0,
                        "NORMAL" : 1,
                        "TEXCOORD_0" : 2
                    },
                    "indices" : 3,
                    "material" : 0
                }
            ]
        },
        {
            "name" : "Text.015",
            "primitives" : [
                {
                    "attributes" : {
                        "POSITION" : 4,
                        "NORMAL" : 5,
                        "TEXCOORD_0" : 6
                    },
                    "indices" : 7,
                    "material" : 0
                }
            ]
        },
        {
            "name" : "Text.017",
            "primitives" : [
                {
                    "attributes" : {
                        "POSITION" : 8,
                        "NORMAL" : 9,
                        "TEXCOORD_0" : 10
                    },
                    "indices" : 11,
                    "material" : 0
                }
            ]
        },
        {
            "name" : "Text.018",
            "primitives" : [
                {
                    "attributes" : {
                        "POSITION" : 12,
                        "NORMAL" : 13,
                        "TEXCOORD_0" : 14
                    },
                    "indices" : 15,
                    "material" : 0
                }
            ]
        },
        {
            "name" : "Text.020",
            "primitives" : [
                {
                    "attributes" : {
                        "POSITION" : 16,
                        "NORMAL" : 17,
                        "TEXCOORD_0" : 18
                    },
                    "indices" : 19,
                    "material" : 0
                }
            ]
        },
        {
            "name" : "Text.021",
            "primitives" : [
                {
                    "attributes" : {
                        "POSITION" : 20,
                        "NORMAL" : 21,
                        "TEXCOORD_0" : 22
                    },
                    "indices" : 23,
                    "material" : 0
                }
            ]
        },
        {
            "name" : "Text.022",
            "primitives" : [
                {
                    "attributes" : {
                        "POSITION" : 24,
                        "NORMAL" : 25,
                        "TEXCOORD_0" : 26
                    },
                    "indices" : 27,
                    "material" : 0
                }
            ]
        },
        {
            "name" : "Text.023",
            "primitives" : [
                {
                    "attributes" : {
                        "POSITION" : 28,
                        "NORMAL" : 29,
                        "TEXCOORD_0" : 30
                    },
                    "indices" : 31,
                    "material" : 0
                }
            ]
        }
    ],
    "accessors" : [
        {
            "bufferView" : 0,
            "componentType" : 5126,
            "count" : 508,
            "max" : [
                2.702000141143799,
                0,
                0.13900001347064972
            ],
            "min" : [
                0.07600000500679016,
                0,
                -0.6910000443458557
            ],
            "type" : "VEC3"
        },
        {
            "bufferView" : 1,
            "componentType" : 5126,
            "count" : 508,
            "type" : "VEC3"
        },
        {
            "bufferView" : 2,
            "componentType" : 5126,
            "count" : 508,
            "type" : "VEC2"
        },
        {
            "bufferView" : 3,
            "componentType" : 5123,
            "count" : 1119,
            "type" : "SCALAR"
        },
        {
            "bufferView" : 4,
            "componentType" : 5126,
            "count" : 326,
            "max" : [
                2.749000072479248,
                0,
                0.13900001347064972
            ],
            "min" : [
                0.07600000500679016,
                0,
                -0.6910000443458557
            ],
            "type" : "VEC3"
        },
        {
            "bufferView" : 5,
            "componentType" : 5126,
            "count" : 326,
            "type" : "VEC3"
        },
        {
            "bufferView" : 6,
            "componentType" : 5126,
            "count" : 326,
            "type" : "VEC2"
        },
        {
            "bufferView" : 7,
            "componentType" : 5123,
            "count" : 729,
            "type" : "SCALAR"
        },
        {
            "bufferView" : 8,
            "componentType" : 5126,
            "count" : 437,
            "max" : [
                2.744000196456909,
                0,
                0.13900001347064972
            ],
            "min" : [
                0.07600000500679016,
                0,
                -0.6910000443458557
            ],
            "type" : "VEC3"
        },
        {
            "bufferView" : 9,
            "componentType" : 5126,
            "count" : 437,
            "type" : "VEC3"
        },
        {
            "bufferView" : 10,
            "componentType" : 5126,
            "count" : 437,
            "type" : "VEC2"
        },
        {
            "bufferView" : 11,
            "componentType" : 5123,
            "count" : 945,
            "type" : "SCALAR"
        },
        {
            "bufferView" : 12,
            "componentType" : 5126,
            "count" : 315,
            "max" : [
                2.578000068664551,
                0,
                0.13900001347064972
            ],
            "min" : [
                0.07600000500679016,
                0,
                -0.6910000443458557
            ],
            "type" : "VEC3"
        },
        {
            "bufferView" : 13,
            "componentType" : 5126,
            "count" : 315,
            "type" : "VEC3"
        },
        {
            "bufferView" : 14,
            "componentType" : 5126,
            "count" : 315,
            "type" : "VEC2"
        },
        {
            "bufferView" : 15,
            "componentType" : 5123,
            "count" : 690,
            "type" : "SCALAR"
        },
        {
            "bufferView" : 16,
            "componentType" : 5126,
            "count" : 411,
            "max" : [
                2.7160000801086426,
                0,
                0.13900001347064972
            ],
            "min" : [
                0.07600000500679016,
                0,
                -0.6910000443458557
            ],
            "type" : "VEC3"
        },
        {
            "bufferView" : 17,
            "componentType" : 5126,
            "count" : 411,
            "type" : "VEC3"
        },
        {
            "bufferView" : 18,
            "componentType" : 5126,
            "count" : 411,
            "type" : "VEC2"
        },
        {
            "bufferView" : 19,
            "componentType" : 5123,
            "count" : 912,
            "type" : "SCALAR"
        },
        {
            "bufferView" : 20,
            "componentType" : 5126,
            "count" : 578,
            "max" : [
                2.746000051498413,
                0,
                0.13900001347064972
            ],
            "min" : [
                0.07600000500679016,
                0,
                -0.6910000443458557
            ],
            "type" : "VEC3"
        },
        {
            "bufferView" : 21,
            "componentType" : 5126,
            "count" : 578,
            "type" : "VEC3"
        },
        {
            "bufferView" : 22,
            "componentType" : 5126,
            "count" : 578,
            "type" : "VEC2"
        },
        {
            "bufferView" : 23,
            "componentType" : 5123,
            "count" : 1266,
            "type" : "SCALAR"
        },
        {
            "bufferView" : 24,
            "componentType" : 5126,
            "count" : 319,
            "max" : [
                2.7680001258850098,
                0,
                0.13900001347064972
            ],
            "min" : [
                0.07600000500679016,
                0,
                -0.6910000443458557
            ],
            "type" : "VEC3"
        },
        {
            "bufferView" : 25,
            "componentType" : 5126,
            "count" : 319,
            "type" : "VEC3"
        },
        {
            "bufferView" : 26,
            "componentType" : 5126,
            "count" : 319,
            "type" : "VEC2"
        },
        {
            "bufferView" : 27,
            "componentType" : 5123,
            "count" : 696,
            "type" : "SCALAR"
        },
        {
            "bufferView" : 28,
            "componentType" : 5126,
            "count" : 490,
            "max" : [
                2.743000030517578,
                0,
                0.13900001347064972
            ],
            "min" : [
                0.07600000500679016,
                0,
                -0.6910000443458557
            ],
            "type" : "VEC3"
        },
        {
            "bufferView" : 29,
            "componentType" : 5126,
            "count" : 490,
            "type" : "VEC3"
        },
        {
            "bufferView" : 30,
            "componentType" : 5126,
            "count" : 490,
            "type" : "VEC2"
        },
        {
            "bufferView" : 31,
            "componentType" : 5123,
            "count" : 1047,
            "type" : "SCALAR"
        }
    ],
    "bufferViews" : [
        {
            "buffer" : 0,
            "byteLength" : 6096,
            "byteOffset" : 0
        },
        {
            "buffer" : 0,
            "byteLength" : 6096,
            "byteOffset" : 6096
        },
        {
            "buffer" : 0,
            "byteLength" : 4064,
            "byteOffset" : 12192
        },
        {
            "buffer" : 0,
            "byteLength" : 2238,
            "byteOffset" : 16256
        },
        {
            "buffer" : 0,
            "byteLength" : 3912,
            "byteOffset" : 18496
        },
        {
            "buffer" : 0,
            "byteLength" : 3912,
            "byteOffset" : 22408
        },
        {
            "buffer" : 0,
            "byteLength" : 2608,
            "byteOffset" : 26320
        },
        {
            "buffer" : 0,
            "byteLength" : 1458,
            "byteOffset" : 28928
        },
        {
            "buffer" : 0,
            "byteLength" : 5244,
            "byteOffset" : 30388
        },
        {
            "buffer" : 0,
            "byteLength" : 5244,
            "byteOffset" : 35632
        },
        {
            "buffer" : 0,
            "byteLength" : 3496,
            "byteOffset" : 40876
        },
        {
            "buffer" : 0,
            "byteLength" : 1890,
            "byteOffset" : 44372
        },
        {
            "buffer" : 0,
            "byteLength" : 3780,
            "byteOffset" : 46264
        },
        {
            "buffer" : 0,
            "byteLength" : 3780,
            "byteOffset" : 50044
        },
        {
            "buffer" : 0,
            "byteLength" : 2520,
            "byteOffset" : 53824
        },
        {
            "buffer" : 0,
            "byteLength" : 1380,
            "byteOffset" : 56344
        },
        {
            "buffer" : 0,
            "byteLength" : 4932,
            "byteOffset" : 57724
        },
        {
            "buffer" : 0,
            "byteLength" : 4932,
            "byteOffset" : 62656
        },
        {
            "buffer" : 0,
            "byteLength" : 3288,
            "byteOffset" : 67588
        },
        {
            "buffer" : 0,
            "byteLength" : 1824,
            "byteOffset" : 70876
        },
        {
            "buffer" : 0,
            "byteLength" : 6936,
            "byteOffset" : 72700
        },
        {
            "buffer" : 0,
            "byteLength" : 6936,
            "byteOffset" : 79636
        },
        {
            "buffer" : 0,
            "byteLength" : 4624,
            "byteOffset" : 86572
        },
        {
            "buffer" : 0,
            "byteLength" : 2532,
            "byteOffset" : 91196
        },
        {
            "buffer" : 0,
            "byteLength" : 3828,
            "byteOffset" : 93728
        },
        {
            "buffer" : 0,
            "byteLength" : 3828,
            "byteOffset" : 97556
        },
        {
            "buffer" : 0,
            "byteLength" : 2552,
            "byteOffset" : 101384
        },
        {
            "buffer" : 0,
            "byteLength" : 1392,
            "byteOffset" : 103936
        },
        {
            "buffer" : 0,
            "byteLength" : 5880,
            "byteOffset" : 105328
        },
        {
            "buffer" : 0,
            "byteLength" : 5880,
            "byteOffset" : 111208
        },
        {
            "buffer" : 0,
            "byteLength" : 3920,
            "byteOffset" : 117088
        },
        {
            "buffer" : 0,
            "byteLength" : 2094,
            "byteOffset" : 121008
        }
    ],
    "buffers" : [
        {
            "byteLength" : 123104,
            "uri" : "data:application/octet-stream;base64,"
        }
    ]
}
