{
    "asset" : {
        "generator" : "Khronos glTF Blender I/O v1.7.33",
        "version" : "2.0"
    },
    "scene" : 0,
    "scenes" : [
        {
            "name" : "Scene",
            "nodes" : [
                0
            ]
        }
    ],
    "nodes" : [
        {
            "mesh" : 0,
            "name" : "Text.147",
            "rotation" : [
                0.6831094026565552,
                -0.1826513707637787,
                0.1826513707637787,
                0.6831094026565552
            ],
            "scale" : [
                0.3161202669143677,
                0.3161202669143677,
                0.3161202669143677
            ],
            "translation" : [
                -42.03656768798828,
                0.9874763488769531,
                -18.33049201965332
            ]
        }
    ],
    "materials" : [
        {
            "doubleSided" : true,
            "name" : "Texto",
            "pbrMetallicRoughness" : {
                "baseColorFactor" : [
                    0.015420391224324703,
                    0.04187585785984993,
                    0.8000000715255737,
                    1
                ],
                "metallicFactor" : 0,
                "roughnessFactor" : 0.5
            }
        }
    ],
    "meshes" : [
        {
            "name" : "Text.142",
            "primitives" : [
                {
                    "attributes" : {
                        "POSITION" : 0,
                        "NORMAL" : 1,
                        "TEXCOORD_0" : 2
                    },
                    "indices" : 3,
                    "material" : 0
                }
            ]
        }
    ],
    "accessors" : [
        {
            "bufferView" : 0,
            "componentType" : 5126,
            "count" : 148,
            "max" : [
                1.5360000133514404,
                0,
                0.009000000543892384
            ],
            "min" : [
                0.07600000500679016,
                0,
                -0.6910000443458557
            ],
            "type" : "VEC3"
        },
        {
            "bufferView" : 1,
            "componentType" : 5126,
            "count" : 148,
            "type" : "VEC3"
        },
        {
            "bufferView" : 2,
            "componentType" : 5126,
            "count" : 148,
            "type" : "VEC2"
        },
        {
            "bufferView" : 3,
            "componentType" : 5123,
            "count" : 300,
            "type" : "SCALAR"
        }
    ],
    "bufferViews" : [
        {
            "buffer" : 0,
            "byteLength" : 1776,
            "byteOffset" : 0
        },
        {
            "buffer" : 0,
            "byteLength" : 1776,
            "byteOffset" : 1776
        },
        {
            "buffer" : 0,
            "byteLength" : 1184,
            "byteOffset" : 3552
        },
        {
            "buffer" : 0,
            "byteLength" : 600,
            "byteOffset" : 4736
        }
    ],
    "buffers" : [
        {
            "byteLength" : 5336,
            "uri" : "data:application/octet-stream;base64,"
        }
    ]
}
