{
    "asset" : {
        "generator" : "Khronos glTF Blender I/O v1.7.33",
        "version" : "2.0"
    },
    "scene" : 0,
    "scenes" : [
        {
            "name" : "Scene",
            "nodes" : [
                0,
                1,
                2,
                3,
                4
            ]
        }
    ],
    "nodes" : [
        {
            "mesh" : 0,
            "name" : "Text.122",
            "rotation" : [
                0.7071037292480469,
                -0.002089702757075429,
                0.002089702757075429,
                0.7071036696434021
            ],
            "scale" : [
                0.3161202669143677,
                0.3161202669143677,
                0.3161202669143677
            ],
            "translation" : [
                5.800000190734863,
                1.399999976158142,
                -2.6000001430511475
            ]
        },
        {
            "mesh" : 1,
            "name" : "Text.123",
            "rotation" : [
                0.7071037292480469,
                -0.002089702757075429,
                0.002089702757075429,
                0.7071036696434021
            ],
            "scale" : [
                0.3161202669143677,
                0.3161202669143677,
                0.3161202669143677
            ],
            "translation" : [
                8.014520645141602,
                1.399999976158142,
                -2.630615711212158
            ]
        },
        {
            "mesh" : 2,
            "name" : "Text.124",
            "rotation" : [
                0.7071037292480469,
                -0.002089702757075429,
                0.002089702757075429,
                0.7071036696434021
            ],
            "scale" : [
                0.3161202669143677,
                0.3161202669143677,
                0.3161202669143677
            ],
            "translation" : [
                7.98390531539917,
                1.399999976158142,
                -1.0079947710037231
            ]
        },
        {
            "mesh" : 3,
            "name" : "Text.125",
            "rotation" : [
                0.7071037292480469,
                -0.002089702757075429,
                0.002089702757075429,
                0.7071036696434021
            ],
            "scale" : [
                0.3161202669143677,
                0.3161202669143677,
                0.3161202669143677
            ],
            "translation" : [
                5.861231327056885,
                1.399999976158142,
                -1.1202515363693237
            ]
        },
        {
            "mesh" : 4,
            "name" : "Text.148",
            "rotation" : [
                0.7071037292480469,
                -0.002089702757075429,
                0.002089702757075429,
                0.7071036696434021
            ],
            "scale" : [
                0.3161202669143677,
                0.3161202669143677,
                0.3161202669143677
            ],
            "translation" : [
                10.36788272857666,
                1.399999976158142,
                -3.960374355316162
            ]
        }
    ],
    "materials" : [
        {
            "doubleSided" : true,
            "name" : "Texto",
            "pbrMetallicRoughness" : {
                "baseColorFactor" : [
                    0.015420391224324703,
                    0.04187585785984993,
                    0.8000000715255737,
                    1
                ],
                "metallicFactor" : 0,
                "roughnessFactor" : 0.5
            }
        }
    ],
    "meshes" : [
        {
            "name" : "Text.118",
            "primitives" : [
                {
                    "attributes" : {
                        "POSITION" : 0,
                        "NORMAL" : 1,
                        "TEXCOORD_0" : 2
                    },
                    "indices" : 3,
                    "material" : 0
                }
            ]
        },
        {
            "name" : "Text.119",
            "primitives" : [
                {
                    "attributes" : {
                        "POSITION" : 4,
                        "NORMAL" : 5,
                        "TEXCOORD_0" : 6
                    },
                    "indices" : 7,
                    "material" : 0
                }
            ]
        },
        {
            "name" : "Text.120",
            "primitives" : [
                {
                    "attributes" : {
                        "POSITION" : 8,
                        "NORMAL" : 9,
                        "TEXCOORD_0" : 10
                    },
                    "indices" : 11,
                    "material" : 0
                }
            ]
        },
        {
            "name" : "Text.121",
            "primitives" : [
                {
                    "attributes" : {
                        "POSITION" : 12,
                        "NORMAL" : 13,
                        "TEXCOORD_0" : 14
                    },
                    "indices" : 15,
                    "material" : 0
                }
            ]
        },
        {
            "name" : "Text.145",
            "primitives" : [
                {
                    "attributes" : {
                        "POSITION" : 16,
                        "NORMAL" : 17,
                        "TEXCOORD_0" : 18
                    },
                    "indices" : 19,
                    "material" : 0
                }
            ]
        }
    ],
    "accessors" : [
        {
            "bufferView" : 0,
            "componentType" : 5126,
            "count" : 150,
            "max" : [
                1.7260000705718994,
                0,
                0.009000000543892384
            ],
            "min" : [
                0.07600000500679016,
                0,
                -0.6910000443458557
            ],
            "type" : "VEC3"
        },
        {
            "bufferView" : 1,
            "componentType" : 5126,
            "count" : 150,
            "type" : "VEC3"
        },
        {
            "bufferView" : 2,
            "componentType" : 5126,
            "count" : 150,
            "type" : "VEC2"
        },
        {
            "bufferView" : 3,
            "componentType" : 5123,
            "count" : 306,
            "type" : "SCALAR"
        },
        {
            "bufferView" : 4,
            "componentType" : 5126,
            "count" : 406,
            "max" : [
                1.7040001153945923,
                0,
                0.009000000543892384
            ],
            "min" : [
                0.07600000500679016,
                0,
                -0.6910000443458557
            ],
            "type" : "VEC3"
        },
        {
            "bufferView" : 5,
            "componentType" : 5126,
            "count" : 406,
            "type" : "VEC3"
        },
        {
            "bufferView" : 6,
            "componentType" : 5126,
            "count" : 406,
            "type" : "VEC2"
        },
        {
            "bufferView" : 7,
            "componentType" : 5123,
            "count" : 876,
            "type" : "SCALAR"
        },
        {
            "bufferView" : 8,
            "componentType" : 5126,
            "count" : 328,
            "max" : [
                1.6970000267028809,
                0,
                0.009000000543892384
            ],
            "min" : [
                0.07600000500679016,
                0,
                -0.6910000443458557
            ],
            "type" : "VEC3"
        },
        {
            "bufferView" : 9,
            "componentType" : 5126,
            "count" : 328,
            "type" : "VEC3"
        },
        {
            "bufferView" : 10,
            "componentType" : 5126,
            "count" : 328,
            "type" : "VEC2"
        },
        {
            "bufferView" : 11,
            "componentType" : 5123,
            "count" : 693,
            "type" : "SCALAR"
        },
        {
            "bufferView" : 12,
            "componentType" : 5126,
            "count" : 280,
            "max" : [
                2.2060000896453857,
                0,
                0.009000000543892384
            ],
            "min" : [
                0.07600000500679016,
                0,
                -0.6910000443458557
            ],
            "type" : "VEC3"
        },
        {
            "bufferView" : 13,
            "componentType" : 5126,
            "count" : 280,
            "type" : "VEC3"
        },
        {
            "bufferView" : 14,
            "componentType" : 5126,
            "count" : 280,
            "type" : "VEC2"
        },
        {
            "bufferView" : 15,
            "componentType" : 5123,
            "count" : 588,
            "type" : "SCALAR"
        },
        {
            "bufferView" : 16,
            "componentType" : 5126,
            "count" : 152,
            "max" : [
                2.0360000133514404,
                0,
                0.009000000543892384
            ],
            "min" : [
                0.07600000500679016,
                0,
                -0.6910000443458557
            ],
            "type" : "VEC3"
        },
        {
            "bufferView" : 17,
            "componentType" : 5126,
            "count" : 152,
            "type" : "VEC3"
        },
        {
            "bufferView" : 18,
            "componentType" : 5126,
            "count" : 152,
            "type" : "VEC2"
        },
        {
            "bufferView" : 19,
            "componentType" : 5123,
            "count" : 306,
            "type" : "SCALAR"
        }
    ],
    "bufferViews" : [
        {
            "buffer" : 0,
            "byteLength" : 1800,
            "byteOffset" : 0
        },
        {
            "buffer" : 0,
            "byteLength" : 1800,
            "byteOffset" : 1800
        },
        {
            "buffer" : 0,
            "byteLength" : 1200,
            "byteOffset" : 3600
        },
        {
            "buffer" : 0,
            "byteLength" : 612,
            "byteOffset" : 4800
        },
        {
            "buffer" : 0,
            "byteLength" : 4872,
            "byteOffset" : 5412
        },
        {
            "buffer" : 0,
            "byteLength" : 4872,
            "byteOffset" : 10284
        },
        {
            "buffer" : 0,
            "byteLength" : 3248,
            "byteOffset" : 15156
        },
        {
            "buffer" : 0,
            "byteLength" : 1752,
            "byteOffset" : 18404
        },
        {
            "buffer" : 0,
            "byteLength" : 3936,
            "byteOffset" : 20156
        },
        {
            "buffer" : 0,
            "byteLength" : 3936,
            "byteOffset" : 24092
        },
        {
            "buffer" : 0,
            "byteLength" : 2624,
            "byteOffset" : 28028
        },
        {
            "buffer" : 0,
            "byteLength" : 1386,
            "byteOffset" : 30652
        },
        {
            "buffer" : 0,
            "byteLength" : 3360,
            "byteOffset" : 32040
        },
        {
            "buffer" : 0,
            "byteLength" : 3360,
            "byteOffset" : 35400
        },
        {
            "buffer" : 0,
            "byteLength" : 2240,
            "byteOffset" : 38760
        },
        {
            "buffer" : 0,
            "byteLength" : 1176,
            "byteOffset" : 41000
        },
        {
            "buffer" : 0,
            "byteLength" : 1824,
            "byteOffset" : 42176
        },
        {
            "buffer" : 0,
            "byteLength" : 1824,
            "byteOffset" : 44000
        },
        {
            "buffer" : 0,
            "byteLength" : 1216,
            "byteOffset" : 45824
        },
        {
            "buffer" : 0,
            "byteLength" : 612,
            "byteOffset" : 47040
        }
    ],
    "buffers" : [
        {
            "byteLength" : 47652,
            "uri" : "data:application/octet-stream;base64,"
        }
    ]
}
