{
    "asset" : {
        "generator" : "Khronos glTF Blender I/O v1.7.33",
        "version" : "2.0"
    },
    "scene" : 0,
    "scenes" : [
        {
            "name" : "Scene",
            "nodes" : [
                0,
                1
            ]
        }
    ],
    "nodes" : [
        {
            "mesh" : 0,
            "name" : "Text.017",
            "rotation" : [
                0.7071037292480469,
                -0.002089702757075429,
                0.002089702757075429,
                0.7071036696434021
            ],
            "scale" : [
                0.3161202669143677,
                0.3161202669143677,
                0.3161202669143677
            ],
            "translation" : [
                -26.180896759033203,
                1.0664570331573486,
                -12.294905662536621
            ]
        },
        {
            "mesh" : 1,
            "name" : "Text.018",
            "rotation" : [
                0.7071037292480469,
                -0.002089702757075429,
                0.002089702757075429,
                0.7071036696434021
            ],
            "scale" : [
                0.3161202669143677,
                0.3161202669143677,
                0.3161202669143677
            ],
            "translation" : [
                -27.090383529663086,
                1.0664570331573486,
                -10.316476821899414
            ]
        }
    ],
    "materials" : [
        {
            "doubleSided" : true,
            "name" : "Texto",
            "pbrMetallicRoughness" : {
                "baseColorFactor" : [
                    0.015420391224324703,
                    0.04187585785984993,
                    0.8000000715255737,
                    1
                ],
                "metallicFactor" : 0,
                "roughnessFactor" : 0.5
            }
        }
    ],
    "meshes" : [
        {
            "name" : "Text.012",
            "primitives" : [
                {
                    "attributes" : {
                        "POSITION" : 0,
                        "NORMAL" : 1,
                        "TEXCOORD_0" : 2
                    },
                    "indices" : 3,
                    "material" : 0
                }
            ]
        },
        {
            "name" : "Text.013",
            "primitives" : [
                {
                    "attributes" : {
                        "POSITION" : 4,
                        "NORMAL" : 5,
                        "TEXCOORD_0" : 6
                    },
                    "indices" : 7,
                    "material" : 0
                }
            ]
        }
    ],
    "accessors" : [
        {
            "bufferView" : 0,
            "componentType" : 5126,
            "count" : 258,
            "max" : [
                1.6740000247955322,
                0,
                0.009000000543892384
            ],
            "min" : [
                0.07600000500679016,
                0,
                -0.6910000443458557
            ],
            "type" : "VEC3"
        },
        {
            "bufferView" : 1,
            "componentType" : 5126,
            "count" : 258,
            "type" : "VEC3"
        },
        {
            "bufferView" : 2,
            "componentType" : 5126,
            "count" : 258,
            "type" : "VEC2"
        },
        {
            "bufferView" : 3,
            "componentType" : 5123,
            "count" : 522,
            "type" : "SCALAR"
        },
        {
            "bufferView" : 4,
            "componentType" : 5126,
            "count" : 306,
            "max" : [
                1.7010000944137573,
                0,
                0.009000000543892384
            ],
            "min" : [
                0.07600000500679016,
                0,
                -0.6910000443458557
            ],
            "type" : "VEC3"
        },
        {
            "bufferView" : 5,
            "componentType" : 5126,
            "count" : 306,
            "type" : "VEC3"
        },
        {
            "bufferView" : 6,
            "componentType" : 5126,
            "count" : 306,
            "type" : "VEC2"
        },
        {
            "bufferView" : 7,
            "componentType" : 5123,
            "count" : 657,
            "type" : "SCALAR"
        }
    ],
    "bufferViews" : [
        {
            "buffer" : 0,
            "byteLength" : 3096,
            "byteOffset" : 0
        },
        {
            "buffer" : 0,
            "byteLength" : 3096,
            "byteOffset" : 3096
        },
        {
            "buffer" : 0,
            "byteLength" : 2064,
            "byteOffset" : 6192
        },
        {
            "buffer" : 0,
            "byteLength" : 1044,
            "byteOffset" : 8256
        },
        {
            "buffer" : 0,
            "byteLength" : 3672,
            "byteOffset" : 9300
        },
        {
            "buffer" : 0,
            "byteLength" : 3672,
            "byteOffset" : 12972
        },
        {
            "buffer" : 0,
            "byteLength" : 2448,
            "byteOffset" : 16644
        },
        {
            "buffer" : 0,
            "byteLength" : 1314,
            "byteOffset" : 19092
        }
    ],
    "buffers" : [
        {
            "byteLength" : 20408,
            "uri" : "data:application/octet-stream;base64,"
        }
    ]
}
