{
    "asset" : {
        "generator" : "Khronos glTF Blender I/O v1.7.33",
        "version" : "2.0"
    },
    "scene" : 0,
    "scenes" : [
        {
            "name" : "Scene",
            "nodes" : [
                0,
                1,
                2
            ]
        }
    ],
    "nodes" : [
        {
            "mesh" : 0,
            "name" : "Text.010",
            "rotation" : [
                0.6831094026565552,
                -0.1826513707637787,
                0.1826513707637787,
                0.6831094026565552
            ],
            "scale" : [
                0.3161202669143677,
                0.3161202669143677,
                0.3161202669143677
            ],
            "translation" : [
                -34.86240005493164,
                0.40213966369628906,
                -17.119239807128906
            ]
        },
        {
            "mesh" : 1,
            "name" : "Text.011",
            "rotation" : [
                0.6831094026565552,
                -0.1826513707637787,
                0.1826513707637787,
                0.6831094026565552
            ],
            "scale" : [
                0.3161202669143677,
                0.3161202669143677,
                0.3161202669143677
            ],
            "translation" : [
                -34.06019973754883,
                0.40213966369628906,
                -14.958717346191406
            ]
        },
        {
            "mesh" : 2,
            "name" : "Text.149",
            "rotation" : [
                0.6831094026565552,
                -0.1826513707637787,
                0.1826513707637787,
                0.6831094026565552
            ],
            "scale" : [
                0.3161202669143677,
                0.3161202669143677,
                0.3161202669143677
            ],
            "translation" : [
                -36.32479476928711,
                0.40213966369628906,
                -18.117162704467773
            ]
        }
    ],
    "materials" : [
        {
            "doubleSided" : true,
            "name" : "Texto",
            "pbrMetallicRoughness" : {
                "baseColorFactor" : [
                    0.015420391224324703,
                    0.04187585785984993,
                    0.8000000715255737,
                    1
                ],
                "metallicFactor" : 0,
                "roughnessFactor" : 0.5
            }
        }
    ],
    "meshes" : [
        {
            "name" : "Text.005",
            "primitives" : [
                {
                    "attributes" : {
                        "POSITION" : 0,
                        "NORMAL" : 1,
                        "TEXCOORD_0" : 2
                    },
                    "indices" : 3,
                    "material" : 0
                }
            ]
        },
        {
            "name" : "Text.006",
            "primitives" : [
                {
                    "attributes" : {
                        "POSITION" : 4,
                        "NORMAL" : 5,
                        "TEXCOORD_0" : 6
                    },
                    "indices" : 7,
                    "material" : 0
                }
            ]
        },
        {
            "name" : "Text.144",
            "primitives" : [
                {
                    "attributes" : {
                        "POSITION" : 8,
                        "NORMAL" : 9,
                        "TEXCOORD_0" : 10
                    },
                    "indices" : 11,
                    "material" : 0
                }
            ]
        }
    ],
    "accessors" : [
        {
            "bufferView" : 0,
            "componentType" : 5126,
            "count" : 159,
            "max" : [
                1.7070000171661377,
                0,
                0.009000000543892384
            ],
            "min" : [
                0.07600000500679016,
                0,
                -0.6910000443458557
            ],
            "type" : "VEC3"
        },
        {
            "bufferView" : 1,
            "componentType" : 5126,
            "count" : 159,
            "type" : "VEC3"
        },
        {
            "bufferView" : 2,
            "componentType" : 5126,
            "count" : 159,
            "type" : "VEC2"
        },
        {
            "bufferView" : 3,
            "componentType" : 5123,
            "count" : 339,
            "type" : "SCALAR"
        },
        {
            "bufferView" : 4,
            "componentType" : 5126,
            "count" : 148,
            "max" : [
                1.5360000133514404,
                0,
                0.009000000543892384
            ],
            "min" : [
                0.07600000500679016,
                0,
                -0.6910000443458557
            ],
            "type" : "VEC3"
        },
        {
            "bufferView" : 5,
            "componentType" : 5126,
            "count" : 148,
            "type" : "VEC3"
        },
        {
            "bufferView" : 6,
            "componentType" : 5126,
            "count" : 148,
            "type" : "VEC2"
        },
        {
            "bufferView" : 7,
            "componentType" : 5123,
            "count" : 300,
            "type" : "SCALAR"
        },
        {
            "bufferView" : 8,
            "componentType" : 5126,
            "count" : 342,
            "max" : [
                1.6600000858306885,
                0,
                0.009000000543892384
            ],
            "min" : [
                0.07600000500679016,
                0,
                -0.6910000443458557
            ],
            "type" : "VEC3"
        },
        {
            "bufferView" : 9,
            "componentType" : 5126,
            "count" : 342,
            "type" : "VEC3"
        },
        {
            "bufferView" : 10,
            "componentType" : 5126,
            "count" : 342,
            "type" : "VEC2"
        },
        {
            "bufferView" : 11,
            "componentType" : 5123,
            "count" : 729,
            "type" : "SCALAR"
        }
    ],
    "bufferViews" : [
        {
            "buffer" : 0,
            "byteLength" : 1908,
            "byteOffset" : 0
        },
        {
            "buffer" : 0,
            "byteLength" : 1908,
            "byteOffset" : 1908
        },
        {
            "buffer" : 0,
            "byteLength" : 1272,
            "byteOffset" : 3816
        },
        {
            "buffer" : 0,
            "byteLength" : 678,
            "byteOffset" : 5088
        },
        {
            "buffer" : 0,
            "byteLength" : 1776,
            "byteOffset" : 5768
        },
        {
            "buffer" : 0,
            "byteLength" : 1776,
            "byteOffset" : 7544
        },
        {
            "buffer" : 0,
            "byteLength" : 1184,
            "byteOffset" : 9320
        },
        {
            "buffer" : 0,
            "byteLength" : 600,
            "byteOffset" : 10504
        },
        {
            "buffer" : 0,
            "byteLength" : 4104,
            "byteOffset" : 11104
        },
        {
            "buffer" : 0,
            "byteLength" : 4104,
            "byteOffset" : 15208
        },
        {
            "buffer" : 0,
            "byteLength" : 2736,
            "byteOffset" : 19312
        },
        {
            "buffer" : 0,
            "byteLength" : 1458,
            "byteOffset" : 22048
        }
    ],
    "buffers" : [
        {
            "byteLength" : 23508,
            "uri" : "data:application/octet-stream;base64,"
        }
    ]
}
