{
    "asset" : {
        "generator" : "Khronos glTF Blender I/O v1.7.33",
        "version" : "2.0"
    },
    "scene" : 0,
    "scenes" : [
        {
            "name" : "Scene",
            "nodes" : [
                0,
                1,
                2,
                3,
                4
            ]
        }
    ],
    "nodes" : [
        {
            "mesh" : 0,
            "name" : "Text",
            "rotation" : [
                0.6831094026565552,
                -0.1826513707637787,
                0.1826513707637787,
                0.6831094026565552
            ],
            "scale" : [
                0.3161202669143677,
                0.3161202669143677,
                0.3161202669143677
            ],
            "translation" : [
                -39.56486129760742,
                0.9874763488769531,
                -17.124298095703125
            ]
        },
        {
            "mesh" : 1,
            "name" : "Text.006",
            "rotation" : [
                0.6831094026565552,
                -0.1826513707637787,
                0.1826513707637787,
                0.6831094026565552
            ],
            "scale" : [
                0.3161202669143677,
                0.3161202669143677,
                0.3161202669143677
            ],
            "translation" : [
                -37.411720275878906,
                0.9874763488769531,
                -17.07986831665039
            ]
        },
        {
            "mesh" : 2,
            "name" : "Text.007",
            "rotation" : [
                0.6831094026565552,
                -0.1826513707637787,
                0.1826513707637787,
                0.6831094026565552
            ],
            "scale" : [
                0.3161202669143677,
                0.3161202669143677,
                0.3161202669143677
            ],
            "translation" : [
                -38.54365539550781,
                0.9874763488769531,
                -15.268770217895508
            ]
        },
        {
            "mesh" : 3,
            "name" : "Text.008",
            "rotation" : [
                0.6831094026565552,
                -0.1826513707637787,
                0.1826513707637787,
                0.6831094026565552
            ],
            "scale" : [
                0.3161202669143677,
                0.3161202669143677,
                0.3161202669143677
            ],
            "translation" : [
                -36.57999038696289,
                0.9874763488769531,
                -14.560079574584961
            ]
        },
        {
            "mesh" : 4,
            "name" : "Text.009",
            "rotation" : [
                0.6831094026565552,
                -0.1826513707637787,
                0.1826513707637787,
                0.6831094026565552
            ],
            "scale" : [
                0.3161202669143677,
                0.3161202669143677,
                0.3161202669143677
            ],
            "translation" : [
                -37.01308059692383,
                0.9874763488769531,
                -13.713587760925293
            ]
        }
    ],
    "materials" : [
        {
            "doubleSided" : true,
            "name" : "Texto",
            "pbrMetallicRoughness" : {
                "baseColorFactor" : [
                    0.015420391224324703,
                    0.04187585785984993,
                    0.8000000715255737,
                    1
                ],
                "metallicFactor" : 0,
                "roughnessFactor" : 0.5
            }
        }
    ],
    "meshes" : [
        {
            "name" : "Text",
            "primitives" : [
                {
                    "attributes" : {
                        "POSITION" : 0,
                        "NORMAL" : 1,
                        "TEXCOORD_0" : 2
                    },
                    "indices" : 3,
                    "material" : 0
                }
            ]
        },
        {
            "name" : "Text.001",
            "primitives" : [
                {
                    "attributes" : {
                        "POSITION" : 4,
                        "NORMAL" : 5,
                        "TEXCOORD_0" : 6
                    },
                    "indices" : 7,
                    "material" : 0
                }
            ]
        },
        {
            "name" : "Text.002",
            "primitives" : [
                {
                    "attributes" : {
                        "POSITION" : 8,
                        "NORMAL" : 9,
                        "TEXCOORD_0" : 10
                    },
                    "indices" : 11,
                    "material" : 0
                }
            ]
        },
        {
            "name" : "Text.003",
            "primitives" : [
                {
                    "attributes" : {
                        "POSITION" : 12,
                        "NORMAL" : 13,
                        "TEXCOORD_0" : 14
                    },
                    "indices" : 15,
                    "material" : 0
                }
            ]
        },
        {
            "name" : "Text.004",
            "primitives" : [
                {
                    "attributes" : {
                        "POSITION" : 16,
                        "NORMAL" : 17,
                        "TEXCOORD_0" : 18
                    },
                    "indices" : 19,
                    "material" : 0
                }
            ]
        }
    ],
    "accessors" : [
        {
            "bufferView" : 0,
            "componentType" : 5126,
            "count" : 37,
            "max" : [
                1.7179999351501465,
                0,
                0
            ],
            "min" : [
                0.07600000500679016,
                0,
                -0.6910000443458557
            ],
            "type" : "VEC3"
        },
        {
            "bufferView" : 1,
            "componentType" : 5126,
            "count" : 37,
            "type" : "VEC3"
        },
        {
            "bufferView" : 2,
            "componentType" : 5126,
            "count" : 37,
            "type" : "VEC2"
        },
        {
            "bufferView" : 3,
            "componentType" : 5123,
            "count" : 81,
            "type" : "SCALAR"
        },
        {
            "bufferView" : 4,
            "componentType" : 5126,
            "count" : 136,
            "max" : [
                1.684999942779541,
                0,
                0.009000000543892384
            ],
            "min" : [
                0.07600000500679016,
                0,
                -0.6820000410079956
            ],
            "type" : "VEC3"
        },
        {
            "bufferView" : 5,
            "componentType" : 5126,
            "count" : 136,
            "type" : "VEC3"
        },
        {
            "bufferView" : 6,
            "componentType" : 5126,
            "count" : 136,
            "type" : "VEC2"
        },
        {
            "bufferView" : 7,
            "componentType" : 5123,
            "count" : 264,
            "type" : "SCALAR"
        },
        {
            "bufferView" : 8,
            "componentType" : 5126,
            "count" : 220,
            "max" : [
                1.6710000038146973,
                0,
                0.009000000543892384
            ],
            "min" : [
                0.07600000500679016,
                0,
                -0.6910000443458557
            ],
            "type" : "VEC3"
        },
        {
            "bufferView" : 9,
            "componentType" : 5126,
            "count" : 220,
            "type" : "VEC3"
        },
        {
            "bufferView" : 10,
            "componentType" : 5126,
            "count" : 220,
            "type" : "VEC2"
        },
        {
            "bufferView" : 11,
            "componentType" : 5123,
            "count" : 471,
            "type" : "SCALAR"
        },
        {
            "bufferView" : 12,
            "componentType" : 5126,
            "count" : 26,
            "max" : [
                1.5469999313354492,
                0,
                0
            ],
            "min" : [
                0.07600000500679016,
                0,
                -0.6820000410079956
            ],
            "type" : "VEC3"
        },
        {
            "bufferView" : 13,
            "componentType" : 5126,
            "count" : 26,
            "type" : "VEC3"
        },
        {
            "bufferView" : 14,
            "componentType" : 5126,
            "count" : 26,
            "type" : "VEC2"
        },
        {
            "bufferView" : 15,
            "componentType" : 5123,
            "count" : 42,
            "type" : "SCALAR"
        },
        {
            "bufferView" : 16,
            "componentType" : 5126,
            "count" : 148,
            "max" : [
                1.7130000591278076,
                0,
                0
            ],
            "min" : [
                0.07600000500679016,
                0,
                -0.6910000443458557
            ],
            "type" : "VEC3"
        },
        {
            "bufferView" : 17,
            "componentType" : 5126,
            "count" : 148,
            "type" : "VEC3"
        },
        {
            "bufferView" : 18,
            "componentType" : 5126,
            "count" : 148,
            "type" : "VEC2"
        },
        {
            "bufferView" : 19,
            "componentType" : 5123,
            "count" : 297,
            "type" : "SCALAR"
        }
    ],
    "bufferViews" : [
        {
            "buffer" : 0,
            "byteLength" : 444,
            "byteOffset" : 0
        },
        {
            "buffer" : 0,
            "byteLength" : 444,
            "byteOffset" : 444
        },
        {
            "buffer" : 0,
            "byteLength" : 296,
            "byteOffset" : 888
        },
        {
            "buffer" : 0,
            "byteLength" : 162,
            "byteOffset" : 1184
        },
        {
            "buffer" : 0,
            "byteLength" : 1632,
            "byteOffset" : 1348
        },
        {
            "buffer" : 0,
            "byteLength" : 1632,
            "byteOffset" : 2980
        },
        {
            "buffer" : 0,
            "byteLength" : 1088,
            "byteOffset" : 4612
        },
        {
            "buffer" : 0,
            "byteLength" : 528,
            "byteOffset" : 5700
        },
        {
            "buffer" : 0,
            "byteLength" : 2640,
            "byteOffset" : 6228
        },
        {
            "buffer" : 0,
            "byteLength" : 2640,
            "byteOffset" : 8868
        },
        {
            "buffer" : 0,
            "byteLength" : 1760,
            "byteOffset" : 11508
        },
        {
            "buffer" : 0,
            "byteLength" : 942,
            "byteOffset" : 13268
        },
        {
            "buffer" : 0,
            "byteLength" : 312,
            "byteOffset" : 14212
        },
        {
            "buffer" : 0,
            "byteLength" : 312,
            "byteOffset" : 14524
        },
        {
            "buffer" : 0,
            "byteLength" : 208,
            "byteOffset" : 14836
        },
        {
            "buffer" : 0,
            "byteLength" : 84,
            "byteOffset" : 15044
        },
        {
            "buffer" : 0,
            "byteLength" : 1776,
            "byteOffset" : 15128
        },
        {
            "buffer" : 0,
            "byteLength" : 1776,
            "byteOffset" : 16904
        },
        {
            "buffer" : 0,
            "byteLength" : 1184,
            "byteOffset" : 18680
        },
        {
            "buffer" : 0,
            "byteLength" : 594,
            "byteOffset" : 19864
        }
    ],
    "buffers" : [
        {
            "byteLength" : 20460,
            "uri" : "data:application/octet-stream;base64,"
        }
    ]
}
