{
    "asset" : {
        "generator" : "Khronos glTF Blender I/O v1.7.33",
        "version" : "2.0"
    },
    "scene" : 0,
    "scenes" : [
        {
            "name" : "Scene",
            "nodes" : [
                0
            ]
        }
    ],
    "nodes" : [
        {
            "mesh" : 0,
            "name" : "Text.001",
            "rotation" : [
                0.43735870718955994,
                0.5556234121322632,
                -0.5556234121322632,
                0.43735867738723755
            ],
            "scale" : [
                0.32540154457092285,
                0.32540154457092285,
                0.32540154457092285
            ],
            "translation" : [
                1.1211185455322266,
                8.292640686035156,
                2.9615190029144287
            ]
        }
    ],
    "materials" : [
        {
            "doubleSided" : true,
            "name" : "TorreVentanas",
            "pbrMetallicRoughness" : {
                "baseColorFactor" : [
                    0.018566593527793884,
                    0.10660996288061142,
                    0.8000000715255737,
                    1
                ],
                "metallicFactor" : 0,
                "roughnessFactor" : 0.12893080711364746
            }
        }
    ],
    "meshes" : [
        {
            "name" : "Text.001",
            "primitives" : [
                {
                    "attributes" : {
                        "POSITION" : 0,
                        "NORMAL" : 1,
                        "TEXCOORD_0" : 2
                    },
                    "indices" : 3,
                    "material" : 0
                }
            ]
        }
    ],
    "accessors" : [
        {
            "bufferView" : 0,
            "componentType" : 5126,
            "count" : 5872,
            "max" : [
                9.701001167297363,
                0.04934735596179962,
                0.00916224718093872
            ],
            "min" : [
                0.017000000923871994,
                -0.04999999701976776,
                -0.6910000443458557
            ],
            "type" : "VEC3"
        },
        {
            "bufferView" : 1,
            "componentType" : 5126,
            "count" : 5872,
            "type" : "VEC3"
        },
        {
            "bufferView" : 2,
            "componentType" : 5126,
            "count" : 5872,
            "type" : "VEC2"
        },
        {
            "bufferView" : 3,
            "componentType" : 5123,
            "count" : 9360,
            "type" : "SCALAR"
        }
    ],
    "bufferViews" : [
        {
            "buffer" : 0,
            "byteLength" : 70464,
            "byteOffset" : 0
        },
        {
            "buffer" : 0,
            "byteLength" : 70464,
            "byteOffset" : 70464
        },
        {
            "buffer" : 0,
            "byteLength" : 46976,
            "byteOffset" : 140928
        },
        {
            "buffer" : 0,
            "byteLength" : 18720,
            "byteOffset" : 187904
        }
    ],
    "buffers" : [
        {
            "byteLength" : 206624,
            "uri" : "data:application/octet-stream;base64,"
        }
    ]
}
